<svg width="24" height="24" viewBox="0 0 24 24" fill="none" xmlns="http://www.w3.org/2000/svg">
<g clip-path="url(#clip0_121022_3839)">
<path d="M12.0005 24C18.6283 24 24.001 18.6273 24.001 11.9995C24.001 5.37322 18.6283 0 12.0005 0C5.37272 0 0 5.37272 0 12C0 18.6273 5.37272 24 12.0005 24Z" fill="white"/>
<path d="M17.3759 7.5H6.12573L7.22922 20.7419C7.24147 20.8875 7.36329 20.9997 7.50896 20.9997H15.992C16.0625 20.9996 16.1305 20.9731 16.1824 20.9254C16.2343 20.8776 16.2664 20.8121 16.2724 20.7419L17.3759 7.5Z" fill="#8E6134"/>
<path d="M11.7508 7.5H6.12573L7.22922 20.7419C7.24147 20.8882 7.36329 20.9997 7.50896 20.9997H11.7508V7.5Z" fill="#A97A45"/>
<path d="M18.501 6.93779C18.501 7.24847 18.2496 7.50049 17.9383 7.50049H5.5627C5.41346 7.50049 5.27034 7.44121 5.16481 7.33568C5.05928 7.23016 5 7.08703 5 6.93779V5.81368C5 5.503 5.25138 5.25098 5.5627 5.25098H17.9383C18.2489 5.25098 18.501 5.50235 18.501 5.81368V6.93779Z" fill="#E2E4E5"/>
<path d="M5.62383 11.4934C5.6161 11.4152 5.6248 11.3363 5.64939 11.2617C5.67397 11.187 5.71389 11.1184 5.76657 11.0601C5.81926 11.0019 5.88355 10.9552 5.95532 10.9233C6.02709 10.8913 6.10475 10.8748 6.18331 10.8746H17.3162C17.3947 10.8747 17.4724 10.8912 17.5443 10.9231C17.6161 10.955 17.6804 11.0016 17.7331 11.0599C17.7858 11.1182 17.8257 11.1869 17.8503 11.2616C17.8748 11.3362 17.8835 11.4152 17.8756 11.4934L17.4257 15.9937C17.4118 16.1325 17.3469 16.2611 17.2435 16.3547C17.1402 16.4483 17.0057 16.5002 16.8663 16.5003H6.63321C6.49364 16.5004 6.35903 16.4486 6.25553 16.3549C6.15202 16.2613 6.08699 16.1326 6.07309 15.9937L5.62383 11.4934ZM17.3748 5.25016L16.5607 3.622C16.467 3.43534 16.3234 3.27835 16.1457 3.16853C15.9681 3.05871 15.7634 3.00037 15.5546 3H7.94489C7.51819 3 7.12888 3.24107 6.93809 3.622L6.12401 5.25016H17.3748Z" fill="#F0F1F1"/>
<path d="M11.0043 14.2106C10.9767 14.2317 10.9423 14.2418 10.9077 14.2391C10.873 14.2363 10.8407 14.2208 10.8168 14.1956C10.7929 14.1703 10.7793 14.1372 10.7784 14.1025C10.7776 14.0677 10.7896 14.0339 10.8122 14.0076C11.3117 13.4113 12.6131 12.6946 13.3904 12.2995C12.7858 11.7103 11.7004 11.5995 10.722 12.0913C9.55015 12.6811 8.97842 13.9109 9.44573 14.839C9.91239 15.7666 11.2408 16.0405 12.4126 15.4507C13.5838 14.8616 14.1555 13.6331 13.6908 12.7049C13.0997 12.9821 11.7958 13.6202 11.0043 14.2106Z" fill="#692E19"/>
<path d="M11.7508 3H7.94597C7.51992 3 7.12996 3.24107 6.93917 3.622L6.12573 5.25016H11.7508V3Z" fill="white"/>
<path d="M11.7505 5.25H5.5627C5.41346 5.25 5.27034 5.30928 5.16481 5.41481C5.05928 5.52034 5 5.66346 5 5.8127V6.93746C5 7.24814 5.25202 7.50016 5.5627 7.50016H11.7505V5.25Z" fill="#F0F1F1"/>
</g>
<defs>
<clipPath id="clip0_121022_3839">
<rect width="24" height="24" fill="white"/>
</clipPath>
</defs>
</svg>
