<svg width="24" height="24" viewBox="0 0 24 24" fill="none" xmlns="http://www.w3.org/2000/svg">
<g clip-path="url(#clip0_121022_3865)">
<path d="M12.0005 24C18.6283 24 24.001 18.6273 24.001 11.9995C24.001 5.37322 18.6283 0 12.0005 0C5.37272 0 0 5.37272 0 12C0 18.6273 5.37272 24 12.0005 24Z" fill="white"/>
<path d="M9.14694 20.2386C2.09162 19.1996 2.21033 12.1148 2.21033 9.97168H21.8037C21.8037 11.0747 21.8538 19.0595 14.2401 20.2974C13.0633 20.4887 10.5185 20.4409 9.14694 20.2386Z" fill="#292F33"/>
<path d="M20.8746 7.8092C22.2962 4.59705 16.0736 4.78146 14.5154 5.28397C13.6827 5.1872 12.8452 5.13833 12.0069 5.13759C6.59623 5.13759 2.21021 6.99781 2.21021 10.0037C2.21021 10.5851 2.3779 11.1441 2.6816 11.6697C0.188062 14.9613 5.12846 15.5803 7.9741 14.9602C9.20502 15.2696 10.5673 15.4466 12.0069 15.4466C17.4175 15.4466 21.8035 13.0095 21.8035 10.0042C21.8035 9.18016 21.4641 8.44598 20.8746 7.8092Z" fill="#66757F"/>
<path d="M12.0069 14.5825C16.7809 14.5825 20.651 12.7764 20.651 10.5486C20.651 8.3207 16.7809 6.51465 12.0069 6.51465C7.23289 6.51465 3.36279 8.3207 3.36279 10.5486C3.36279 12.7764 7.23289 14.5825 12.0069 14.5825Z" fill="#FFCC4D"/>
<path d="M3.93912 9.39525C3.62678 8.14531 5.09167 5.9376 7.97304 6.51388C8.54932 5.9376 9.60851 5.36133 11.4307 5.36133C12.5832 5.36133 14.6647 6.38421 13.7358 8.2427C13.1595 9.39525 10.8544 11.1241 7.97304 9.97152C7.39677 10.5478 4.5154 11.7003 3.93912 9.39525Z" fill="#77B255"/>
<path d="M8.54916 9.97202C8.40567 9.99276 8.27774 10.0141 8.15845 10.036C10.9522 11.0422 13.172 9.37039 13.7356 8.2432C14.3569 7.00075 13.6313 6.13403 12.7381 5.69434C12.9651 6.74431 12.0881 9.46663 8.54916 9.97202Z" fill="#5C913B"/>
<path d="M4.51571 9.39613C4.81825 8.63948 7.39708 7.66731 10.2784 11.125C10.8547 11.7012 12.9212 12.0389 13.7361 12.8538C14.3124 13.4301 13.7361 14.0063 11.431 14.0063C9.1259 14.0063 3.36316 12.2775 4.51571 9.39613Z" fill="#D99E82"/>
<path d="M5.11523 11.7109C6.58358 13.1764 9.83492 14.0057 11.4306 14.0057C13.7357 14.0057 14.312 13.4294 13.7357 12.8531C13.5479 12.6652 13.292 12.5033 13.005 12.3575C11.1586 13.3562 6.27412 12.2745 5.11523 11.7109Z" fill="#B27962"/>
<path d="M17.1933 11.1255C17.0728 11.1255 16.9495 11.1059 16.8285 11.0655L15.0997 10.4893C14.8097 10.3926 14.5699 10.1847 14.4332 9.91127C14.2965 9.63784 14.274 9.32131 14.3707 9.0313C14.4673 8.74129 14.6753 8.50156 14.9487 8.36485C15.2221 8.22814 15.5386 8.20564 15.8286 8.30231L17.5575 8.87859C17.8178 8.96461 18.0389 9.1406 18.1811 9.37496C18.3234 9.60933 18.3774 9.88673 18.3335 10.1573C18.2897 10.428 18.1508 10.6741 17.9418 10.8515C17.7328 11.029 17.4674 11.1261 17.1933 11.1255ZM16.617 12.8537H15.4644C15.3116 12.8537 15.165 12.793 15.057 12.6849C14.9489 12.5769 14.8882 12.4303 14.8882 12.2775C14.8882 12.1246 14.9489 11.978 15.057 11.87C15.165 11.7619 15.3116 11.7012 15.4644 11.7012H16.617C16.7698 11.7012 16.9164 11.7619 17.0245 11.87C17.1326 11.978 17.1933 12.1246 17.1933 12.2775C17.1933 12.4303 17.1326 12.5769 17.0245 12.6849C16.9164 12.793 16.7698 12.8537 16.617 12.8537Z" fill="#FFE8B6"/>
</g>
<defs>
<clipPath id="clip0_121022_3865">
<rect width="24" height="24" fill="white"/>
</clipPath>
</defs>
</svg>
