<svg width="24" height="24" viewBox="0 0 24 24" fill="none" xmlns="http://www.w3.org/2000/svg">
<g clip-path="url(#clip0_121022_3879)">
<path d="M12.0005 24C18.6283 24 24.001 18.6273 24.001 11.9995C24.001 5.37322 18.6283 0 12.0005 0C5.37272 0 0 5.37272 0 12C0 18.6273 5.37272 24 12.0005 24Z" fill="white"/>
<path d="M21.056 11.0719V11.3362L12.2478 6.2856C12.1049 6.21416 11.9334 5.49978 11.7906 6.2856L2.98235 11.3362V11.0719H2.00366V14.9795C2.00366 15.1653 2.09653 15.3439 2.28941 15.4439L11.1548 19.8015C11.6977 20.0659 12.3406 20.0659 12.8836 19.8015L21.7489 15.4439C21.9418 15.351 22.0347 15.1653 22.0347 14.9795V11.0719H21.056Z" fill="#321B41"/>
<path d="M2.28942 10.6363L11.2691 6.22857C11.7406 5.99282 12.2978 5.99282 12.7693 6.22857L21.7489 10.6363C22.1347 10.822 22.1347 11.3721 21.7489 11.5578L12.8836 15.9155C12.3406 16.1798 11.6977 16.1798 11.1548 15.9155L2.28942 11.5578C2.20271 11.516 2.12956 11.4506 2.07836 11.3691C2.02716 11.2876 2 11.1933 2 11.097C2 11.0008 2.02716 10.9065 2.07836 10.825C2.12956 10.7434 2.20271 10.678 2.28942 10.6363ZM8.37588 8.65744C8.233 8.72887 8.233 8.9289 8.37588 9.00034L11.6691 10.622C11.8692 10.722 12.112 10.722 12.3121 10.622L15.6053 9.00034C15.7482 8.9289 15.7482 8.72887 15.6053 8.65744L12.2692 7.02152C12.1835 6.9765 12.0883 6.95238 11.9915 6.95114C11.8946 6.9499 11.7989 6.97157 11.712 7.01438L8.37588 8.65744ZM16.3054 9.40753L8.47589 13.2366C8.33301 13.308 8.33301 13.508 8.47589 13.5795L11.7691 15.2011C11.9692 15.3011 12.2121 15.3011 12.4121 15.2011L20.1987 11.3935C20.3416 11.3221 20.3416 11.122 20.1987 11.0506L16.8626 9.40753C16.7758 9.36522 16.6806 9.34324 16.584 9.34324C16.4875 9.34324 16.3922 9.36522 16.3054 9.40753ZM3.83961 10.9863C3.69674 11.0577 3.69674 11.2578 3.83961 11.3292L7.13287 12.9508C7.33289 13.0508 7.57578 13.0508 7.7758 12.9508L11.0691 11.3292C11.2119 11.2578 11.2119 11.0577 11.0691 10.9863L7.73294 9.34324C7.64492 9.30082 7.54847 9.2788 7.45077 9.2788C7.35306 9.2788 7.25661 9.30082 7.16859 9.34324L3.83961 10.9863Z" fill="#635994"/>
<path d="M15.8125 7.68605C15.8125 7.65747 15.8125 7.62175 15.8054 7.59318C15.7783 7.2308 15.6221 6.89016 15.3652 6.63321C15.1082 6.37626 14.7676 6.22005 14.4052 6.193H14.3766C13.9123 6.17157 13.4837 5.93583 13.1979 5.5715C12.9193 5.22146 12.4978 5 12.0192 5C11.5406 5 11.112 5.22146 10.8405 5.5715C10.5476 5.93583 10.1261 6.17157 9.66178 6.193H9.63321C8.88312 6.23587 8.28304 6.84308 8.22589 7.58603C8.22589 7.6008 8.2247 7.61628 8.22232 7.63247L8.21875 7.6789C8.21875 8.01966 8.29876 8.34113 8.44163 8.62545L8.44878 8.63974C8.57468 8.88887 8.74963 9.10999 8.96313 9.28982L9.89324 9.74702C10.0356 9.77797 10.1823 9.79345 10.3333 9.79345H13.6908C13.8147 9.79393 13.9354 9.7844 14.053 9.76487L15.1424 9.22838C15.3211 9.06084 15.4697 8.86391 15.5818 8.64616C15.7297 8.35827 15.8125 8.0318 15.8125 7.68605Z" fill="#44911B"/>
<path d="M12.9441 7.37142C12.7928 7.41175 12.6475 7.4718 12.5119 7.55002C12.2119 7.72861 11.8333 7.72861 11.5332 7.55002L11.4789 7.51859C11.1947 7.36236 10.8706 7.29375 10.5474 7.32142C10.311 7.33914 10.0809 7.40603 9.87182 7.5178C9.66275 7.62957 9.47932 7.78376 9.33327 7.97049C9.18721 8.15723 9.08175 8.3724 9.02364 8.60224C8.96553 8.83208 8.95604 9.07152 8.99578 9.30524L11.669 10.6218C11.869 10.7218 12.1119 10.7218 12.3119 10.6218L15.0551 9.27166C15.103 8.9504 15.0586 8.62215 14.9272 8.32511C14.7628 7.95736 14.4733 7.65978 14.1103 7.48518C13.7472 7.31059 13.3341 7.27029 12.9441 7.37142Z" fill="#86D72F"/>
<path d="M6.67098 10.0781C6.69456 10.5353 6.89173 10.9468 7.19676 11.2482C7.52791 11.5754 7.97495 11.7585 8.44048 11.7576C8.79481 11.7576 9.11199 11.929 9.31202 12.1941L7.77612 12.9506C7.57609 13.0506 7.33321 13.0506 7.13318 12.9506L4.94792 11.8747C4.63206 11.2954 4.46721 10.6458 4.46857 9.98593C4.46857 9.90735 4.47572 9.83591 4.49001 9.76448C4.17357 9.57684 3.91117 9.3104 3.72838 8.99114C3.54559 8.67188 3.44865 8.3107 3.44702 7.94282V7.29274C3.44702 6.81411 3.83278 6.41406 4.31856 6.41406C4.80433 6.41406 5.19723 6.80697 5.19723 7.29274V7.94282C5.19723 8.14285 5.36154 8.30715 5.56156 8.30715C5.76159 8.30715 5.92589 8.14285 5.92589 7.94282V7.29274C5.92589 6.81411 6.32594 6.41406 6.81171 6.41406C7.29749 6.41406 7.69039 6.80697 7.69039 7.29274V7.94282C7.69016 8.22467 7.63339 8.50361 7.52345 8.76313C7.4135 9.02265 7.25262 9.25748 7.05032 9.45372C6.9284 9.57279 6.79409 9.67637 6.64741 9.76448L6.65241 9.79162C6.66313 9.85592 6.66884 9.92307 6.66884 9.98593L6.67098 10.0781Z" fill="#FF6723"/>
<path d="M20.1988 11.0503L18.4771 10.2074C14.6838 9.18582 11.262 10.936 9.29028 13.9864L11.7692 15.208C11.9692 15.308 12.2121 15.308 12.4121 15.208L20.1988 11.4004C20.3416 11.3218 20.3416 11.1218 20.1988 11.0503Z" fill="#F4F4F4"/>
<path d="M15.377 10.4505L15.1199 10.7791C15.0627 10.8505 15.077 10.9577 15.1484 11.0149C15.2199 11.072 15.327 11.0577 15.3842 10.9863L15.6414 10.6577C15.6985 10.5862 15.6842 10.4791 15.6128 10.4219C15.5776 10.3948 15.5332 10.3826 15.4891 10.3879C15.445 10.3933 15.4047 10.4158 15.377 10.4505ZM17.2487 11.1149L16.8415 11.022C16.7995 11.0098 16.7633 10.9829 16.7397 10.9461C16.716 10.9093 16.7065 10.8652 16.7129 10.822C16.7343 10.7291 16.8201 10.672 16.9129 10.6934L17.3201 10.7863C17.413 10.8077 17.4702 10.8934 17.4487 10.9863C17.4273 11.0791 17.3416 11.1363 17.2487 11.1149ZM14.7198 11.7507L15.1342 11.815C15.1562 11.8182 15.1774 11.8258 15.1965 11.8373C15.2156 11.8488 15.2323 11.8639 15.2455 11.8818C15.2588 11.8997 15.2684 11.9201 15.2738 11.9417C15.2792 11.9633 15.2803 11.9858 15.277 12.0078C15.2737 12.0299 15.2661 12.0511 15.2547 12.0702C15.2432 12.0893 15.2281 12.106 15.2102 12.1192C15.1923 12.1325 15.1719 12.1421 15.1503 12.1475C15.1287 12.1529 15.1062 12.154 15.0841 12.1507L14.6698 12.0864C14.6478 12.0831 14.6266 12.0755 14.6075 12.0641C14.5884 12.0526 14.5717 12.0375 14.5584 12.0196C14.5452 12.0017 14.5355 11.9813 14.5301 11.9597C14.5247 11.9381 14.5237 11.9156 14.5269 11.8935C14.5302 11.8715 14.5378 11.8503 14.5493 11.8312C14.5608 11.8121 14.5759 11.7954 14.5938 11.7821C14.6117 11.7689 14.632 11.7593 14.6537 11.7539C14.6753 11.7485 14.6978 11.7474 14.7198 11.7507ZM14.5055 12.9437L14.3341 13.3223C14.3251 13.3425 14.3203 13.3642 14.3198 13.3862C14.3193 13.4083 14.3231 13.4302 14.3311 13.4508C14.339 13.4713 14.3509 13.4901 14.3662 13.5061C14.3814 13.522 14.3996 13.5348 14.4198 13.5437C14.4399 13.5526 14.4617 13.5575 14.4837 13.558C14.5058 13.5585 14.5277 13.5547 14.5483 13.5467C14.5688 13.5388 14.5876 13.5268 14.6036 13.5116C14.6195 13.4964 14.6323 13.4782 14.6412 13.458L14.8127 13.0794C14.8484 12.9937 14.8127 12.8937 14.727 12.8579C14.6412 12.8222 14.5484 12.8579 14.5055 12.9437ZM13.0553 14.0867L12.6481 13.9938C12.6046 13.9842 12.5667 13.9578 12.5426 13.9203C12.5185 13.8828 12.5102 13.8373 12.5195 13.7938C12.541 13.7009 12.6267 13.6437 12.7196 13.6652L13.1268 13.758C13.2196 13.7795 13.2768 13.8652 13.2554 13.9581C13.2339 14.0509 13.1482 14.1081 13.0553 14.0867ZM17.1273 12.1864L16.8344 12.4793C16.7701 12.5436 16.6629 12.5436 16.5986 12.4793C16.5676 12.4479 16.5503 12.4056 16.5503 12.3614C16.5503 12.3173 16.5676 12.275 16.5986 12.2436L16.8915 11.9507C16.9558 11.8864 17.063 11.8864 17.1273 11.9507C17.1915 12.015 17.1915 12.1221 17.1273 12.1864ZM13.4911 11.5006L13.784 11.2077C13.8483 11.1434 13.8483 11.0363 13.784 10.972C13.7526 10.941 13.7102 10.9236 13.6661 10.9236C13.622 10.9236 13.5797 10.941 13.5482 10.972L13.2554 11.2649C13.1911 11.3292 13.1911 11.4363 13.2554 11.5006C13.3196 11.5649 13.4268 11.5649 13.4911 11.5006ZM18.8632 11.0791L19.1989 11.3292C19.2704 11.3863 19.2847 11.4935 19.2204 11.5721C19.1632 11.6435 19.0561 11.6578 18.9846 11.6006L18.656 11.3435C18.6213 11.3158 18.5988 11.2755 18.5935 11.2314C18.5881 11.1873 18.6003 11.1429 18.6274 11.1077C18.6846 11.0363 18.7917 11.022 18.8632 11.0791ZM12.2981 12.6722L12.6124 12.4007C12.6839 12.3436 12.691 12.2364 12.6338 12.165C12.6052 12.1312 12.5645 12.11 12.5204 12.1059C12.4763 12.1019 12.4323 12.1154 12.3981 12.1436L12.0838 12.415C12.0123 12.4722 12.0052 12.5793 12.0624 12.6508C12.1195 12.7222 12.2267 12.7293 12.2981 12.6722ZM10.8336 13.9009L10.6765 13.5152C10.6407 13.4366 10.6765 13.3366 10.7693 13.2937C10.8551 13.258 10.9551 13.3008 10.9908 13.3866L11.148 13.7723C11.1646 13.8141 11.1641 13.8606 11.1468 13.902C11.1294 13.9434 11.0965 13.9764 11.0551 13.9938C11.0134 14.0104 10.9668 14.01 10.9254 13.9926C10.884 13.9752 10.851 13.9423 10.8336 13.9009Z" fill="#D3D3D3"/>
</g>
<defs>
<clipPath id="clip0_121022_3879">
<rect width="24" height="24" fill="white"/>
</clipPath>
</defs>
</svg>
