<svg width="24" height="24" viewBox="0 0 24 24" fill="none" xmlns="http://www.w3.org/2000/svg">
<g clip-path="url(#clip0_121022_3849)">
<path d="M12.0005 24C18.6283 24 24.001 18.6273 24.001 11.9995C24.001 5.37322 18.6283 0 12.0005 0C5.37272 0 0 5.37272 0 12C0 18.6273 5.37272 24 12.0005 24Z" fill="white"/>
<path d="M4.00591 4.68529L6.43591 21.4812C6.45785 21.6253 6.53064 21.7568 6.64112 21.852C6.75159 21.9471 6.89246 21.9996 7.03826 22H16.3892C16.5356 22.0018 16.6776 21.9501 16.7886 21.8545C16.8995 21.759 16.9717 21.6262 16.9916 21.4812L19.4216 4.68529C19.433 4.59967 19.4259 4.5126 19.4008 4.42994C19.3758 4.34727 19.3333 4.27093 19.2763 4.20602C19.2193 4.14111 19.1491 4.08915 19.0704 4.05362C18.9917 4.01808 18.9062 3.9998 18.8199 4.00001H4.60827C4.52178 3.99962 4.43622 4.01776 4.35734 4.05322C4.27845 4.08867 4.20808 4.1406 4.15094 4.20553C4.09381 4.27046 4.05125 4.34687 4.02612 4.42963C4.001 4.51238 3.99389 4.59956 4.00527 4.68529" fill="#AEDDFF"/>
<path d="M5.61286 8.68992L7.19493 19.7258C7.22064 19.9245 7.39421 20.0717 7.5935 20.0717H15.8259C16.0252 20.0717 16.1988 19.9245 16.2245 19.7258L17.8123 8.68992C17.8766 8.24764 17.5359 7.85742 17.0859 7.85742H6.33929C5.89572 7.85742 5.55501 8.25406 5.61286 8.68992Z" fill="#F3EEF8"/>
<path d="M17.4068 6.06723C17.4188 5.98366 17.4142 5.89854 17.3933 5.81673C17.3724 5.73493 17.3356 5.65805 17.2849 5.59047C17.2343 5.5229 17.1709 5.46596 17.0983 5.4229C17.0256 5.37984 16.9452 5.35151 16.8616 5.33952C16.7781 5.32753 16.693 5.33212 16.6112 5.35303C16.5293 5.37394 16.4525 5.41076 16.3849 5.46138C16.3173 5.512 16.2604 5.57543 16.2173 5.64806C16.1743 5.72069 16.1459 5.80109 16.1339 5.88466L14.1006 20.0718H15.3992L17.4068 6.06723Z" fill="white"/>
</g>
<defs>
<clipPath id="clip0_121022_3849">
<rect width="24" height="24" fill="white"/>
</clipPath>
</defs>
</svg>
