<svg width="24" height="24" viewBox="0 0 24 24" fill="none" xmlns="http://www.w3.org/2000/svg">
<g clip-path="url(#clip0_121022_3889)">
<path d="M12.0005 24C18.6283 24 24.001 18.6273 24.001 11.9995C24.001 5.37322 18.6283 0 12.0005 0C5.37272 0 0 5.37272 0 12C0 18.6273 5.37272 24 12.0005 24Z" fill="white"/>
<path d="M18.2222 20H5.77778C4.8 20 4 19.2 4 18.2222V5.77778C4 4.8 4.8 4 5.77778 4H18.2222C19.2 4 20 4.8 20 5.77778V18.2222C20 19.2 19.2 20 18.2222 20Z" fill="#FF9800"/>
<path d="M14.4445 8.44466H9.55558C9.20003 8.44466 8.88892 8.13355 8.88892 7.77799C8.88892 7.42244 9.20003 7.11133 9.55558 7.11133H14.4445C14.8 7.11133 15.1111 7.42244 15.1111 7.77799C15.1111 8.13355 14.8 8.44466 14.4445 8.44466Z" fill="#8A5100"/>
</g>
<defs>
<clipPath id="clip0_121022_3889">
<rect width="24" height="24" fill="white"/>
</clipPath>
</defs>
</svg>
