<svg width="24" height="24" viewBox="0 0 24 24" fill="none" xmlns="http://www.w3.org/2000/svg">
<g clip-path="url(#clip0_121022_3876)">
<path d="M12.0005 24C18.6283 24 24.001 18.6273 24.001 11.9995C24.001 5.37322 18.6283 0 12.0005 0C5.37272 0 0 5.37272 0 12C0 18.6273 5.37272 24 12.0005 24Z" fill="white"/>
<path d="M17.4975 4C17.2149 4 16.9115 4.038 16.6323 4.11128C16.7185 4.49364 16.7771 4.86107 16.7875 5.24071C17.0287 5.29567 17.2562 5.38626 17.4665 5.505C17.5285 5.53995 17.5871 5.57727 17.6457 5.61628C18.0146 5.44835 18.4385 5.32383 18.8797 5.2112C19.2555 5.1145 19.6381 5.03138 20 4.95539C19.9 4.89975 19.7932 4.84037 19.7036 4.79389C19.3692 4.62358 19.0866 4.52282 18.5799 4.62697L18.1559 4.7145L18.2352 4.0916C18.0318 4.0302 17.7733 4 17.4975 4ZM16.267 5.78897C16.0774 5.78897 15.8809 5.8229 15.6775 5.8955C15.1433 6.08957 14.5469 6.58117 13.992 7.56573C13.7921 7.91858 13.6059 8.25445 13.4267 8.56997H13.4474C13.6611 8.56658 13.8576 8.59372 14.0437 8.65479C14.4194 8.77693 14.7227 9.01442 15.0261 9.30958L14.5918 9.74385C14.316 9.47583 14.0885 9.31298 13.8507 9.23494C13.637 9.1637 13.3957 9.15352 13.0544 9.23494C12.1065 10.9347 11.455 12.1018 10.8174 12.9703C11.2999 13.374 11.9617 13.5403 12.8097 13.5233L12.8235 14.134C11.8962 14.151 11.0621 13.961 10.4382 13.4521C9.72123 14.3036 8.94222 14.8363 7.76681 15.3656C8.17011 15.7455 8.81468 16.0339 9.64884 16.2341L9.50407 16.8244C8.50446 16.5869 7.67719 16.2239 7.1636 15.6268C7.15671 15.6302 7.15326 15.6302 7.14637 15.6336C6.09022 16.0645 5.63799 16.5462 5.51286 16.95C5.38774 17.3503 5.54147 17.7506 5.91098 18.1374C6.28084 18.5208 6.86027 18.8465 7.45659 19.0059C8.05291 19.1688 8.65613 19.1552 9.08699 18.9449C11.8721 17.5844 13.4853 16.2103 14.7434 14.5513C16.005 12.8889 16.9046 10.9245 18.2041 8.39695C18.3799 8.05768 18.3593 7.60305 18.1628 7.15522C17.9663 6.70704 17.6009 6.28397 17.1597 6.03528C16.884 5.87956 16.5841 5.78897 16.267 5.78897ZM5.52803 18.6226C5.16955 18.9584 4.61183 19.0738 4.03033 19.1858C4.02034 19.1858 4.01 19.1891 4 19.1891C4.2892 19.2502 4.56082 19.3181 4.77453 19.3995C5.08475 19.5182 5.29881 19.7625 5.48356 20C5.60558 19.6709 5.75311 19.369 5.99336 19.0025C5.82481 18.8872 5.66832 18.7617 5.52803 18.6226Z" fill="#E27E0C"/>
</g>
<defs>
<clipPath id="clip0_121022_3876">
<rect width="24" height="24" fill="white"/>
</clipPath>
</defs>
</svg>
