<svg width="24" height="24" viewBox="0 0 24 24" fill="none" xmlns="http://www.w3.org/2000/svg">
<g clip-path="url(#clip0_121022_3855)">
<path d="M12.0005 24C18.6283 24 24.001 18.6273 24.001 11.9995C24.001 5.37322 18.6283 0 12.0005 0C5.37272 0 0 5.37272 0 12C0 18.6273 5.37272 24 12.0005 24Z" fill="white"/>
<path d="M18.7515 10.9998C18.3351 10.9998 17.9555 11.0926 17.6261 11.2222V10.9998C17.6261 10.3784 17.6854 9.875 17.064 9.875H6.93762C6.31625 9.875 6.37555 10.3784 6.37555 10.9998V13.25C6.37555 17.7505 8.88941 18.8489 12.0008 18.8753C14.1408 18.8573 15.9972 18.332 16.9486 16.5432C19.6385 16.2519 21.0017 15.1484 21.0017 13.25C21.0017 11.821 20.1805 11.0004 18.7515 11.0004M17.3953 15.3495C17.5449 14.7487 17.6261 14.0551 17.6261 13.2507V12.4746C17.9103 12.3006 18.3068 12.1259 18.7515 12.1259C19.5618 12.1259 19.8763 12.4404 19.8763 13.2507C19.8763 13.7058 19.8699 14.9234 17.3953 15.3495Z" fill="#F0F1F1"/>
<path d="M6.93826 9.8749C6.31624 9.8749 6.37554 10.3783 6.37554 10.9997V13.2499C6.37554 17.7504 8.88941 18.8488 12.0008 18.8752V9.8749H6.93826ZM14.2504 6.50049C14.2504 5.37505 12.2818 3.40649 13.1262 2C12.5635 2.28168 12.0008 3.1248 12.0008 4.2496C12.0008 5.3744 13.97 7.34361 13.1262 8.7501C13.97 8.18802 14.2504 7.6253 14.2504 6.50049ZM11.4381 7.25015C11.4381 6.50049 10.1257 5.18747 10.6884 4.25025C10.3133 4.43718 9.93815 5.00054 9.93815 5.7502C9.93815 6.49985 11.2505 7.81287 10.6884 8.7501C11.2505 8.37559 11.4381 8.00044 11.4381 7.25015Z" fill="white"/>
<path d="M11.438 9.59375H10.8752V12.125H11.438V9.59375Z" fill="#5B5C5F"/>
<path d="M10.0313 12.125H12.2815L13.1259 12.9694V16.6255H9.1875V12.9688L10.0313 12.125Z" fill="#FACB1B"/>
<path d="M3 17.75C3 18.9928 7.02992 19.9996 12.0009 19.9996C16.9719 19.9996 21.0012 18.9928 21.0012 17.75H3Z" fill="#E2E4E5"/>
<path d="M3 17.75C3 18.9928 7.02992 19.9996 12.0009 19.9996V17.75H3Z" fill="#F0F1F1"/>
</g>
<defs>
<clipPath id="clip0_121022_3855">
<rect width="24" height="24" fill="white"/>
</clipPath>
</defs>
</svg>
