<svg width="24" height="24" viewBox="0 0 24 24" fill="none" xmlns="http://www.w3.org/2000/svg">
<path d="M6.23955 22.2655H18.0621C19.8698 22.2655 20.9147 21.2211 20.9147 19.1515V8.75566C20.9147 6.68652 19.86 5.64166 17.7604 5.64166H16.1635C16.1035 3.53223 14.2753 1.73438 12.0051 1.73438C9.72512 1.73438 7.89684 3.53223 7.83641 5.64166H6.23998C4.15069 5.64166 3.08569 6.67623 3.08569 8.75566V19.1519C3.08569 21.2309 4.15069 22.2655 6.23998 22.2655M12.0051 3.26137C13.4211 3.26137 14.496 4.32637 14.5465 5.64209H9.46369C9.50398 4.32637 10.5788 3.26137 12.0051 3.26137Z" fill="#1A202C"/>
</svg>
