<svg width="24" height="24" viewBox="0 0 24 24" fill="none" xmlns="http://www.w3.org/2000/svg">
<path d="M7.44251 5.34961C8.08151 5.34961 8.67251 5.39961 9.21251 5.54761C9.75351 5.64661 10.1965 5.84461 10.5895 6.09161C10.9835 6.33894 11.2785 6.68528 11.4745 7.13061C11.6715 7.57561 11.7705 8.12061 11.7705 8.71361C11.7705 9.40661 11.6225 9.99961 11.2785 10.4446C10.9835 10.8906 10.4915 11.2856 9.90151 11.5826C10.7375 11.8306 11.3765 12.2756 11.7705 12.8686C12.1645 13.4616 12.4095 14.2046 12.4095 15.0456C12.4095 15.7386 12.2615 16.3316 12.0155 16.8266C11.7705 17.3216 11.3765 17.7666 10.9335 18.0636C10.4521 18.3816 9.92021 18.6156 9.36051 18.7556C8.77051 18.9046 8.18051 19.0036 7.59051 19.0036H0.999512V5.34961H7.44251ZM7.04851 10.8896C7.58951 10.8896 8.03251 10.7416 8.37651 10.4946C8.72051 10.2476 8.86851 9.80161 8.86851 9.25761C8.86851 8.96061 8.81851 8.66361 8.72051 8.46661C8.62251 8.26961 8.47451 8.11961 8.27851 7.97161C8.07811 7.85905 7.86257 7.77587 7.63851 7.72461C7.39251 7.67461 7.14751 7.67461 6.85151 7.67461H3.99951V10.8906L7.04851 10.8896ZM7.19651 16.7276C7.49151 16.7276 7.78651 16.6776 8.03251 16.6286C8.27851 16.5786 8.52451 16.4806 8.72051 16.3316C8.92011 16.186 9.08759 16.0008 9.21251 15.7876C9.31051 15.5406 9.40951 15.2436 9.40951 14.8976C9.40951 14.2046 9.21251 13.7096 8.81951 13.3636C8.42551 13.0666 7.88451 12.9186 7.24551 12.9186H3.99951V16.7286L7.19651 16.7276ZM16.6885 16.6776C17.0818 17.0736 17.6718 17.2716 18.4585 17.2716C18.9995 17.2716 19.4915 17.1236 19.8845 16.8766C20.2785 16.5793 20.5245 16.2823 20.6225 15.9856H23.0325C22.6385 17.1726 22.0485 18.0136 21.2625 18.5576C20.4745 19.0526 19.5405 19.3496 18.4095 19.3496C17.686 19.3507 16.9686 19.2164 16.2945 18.9536C15.6876 18.7273 15.1467 18.3534 14.7205 17.8656C14.2628 17.411 13.9251 16.8499 13.7375 16.2326C13.4915 15.5896 13.3925 14.8976 13.3925 14.1056C13.3925 13.3636 13.4915 12.6716 13.7375 12.0276C13.9735 11.4072 14.3239 10.8366 14.7705 10.3456C15.2125 9.90061 15.7535 9.50561 16.3435 9.25761C17.0003 8.99391 17.7018 8.85946 18.4095 8.86161C19.2455 8.86161 19.9835 9.01061 20.6225 9.35661C21.2625 9.70261 21.7535 10.0986 22.1465 10.6926C22.5405 11.2366 22.8365 11.8796 23.0325 12.5726C23.1305 13.2646 23.1795 13.9576 23.1305 14.7486H15.9995C15.9995 15.5406 16.2945 16.2826 16.6885 16.6786M19.7865 11.4846C19.4425 11.1386 18.9015 10.9406 18.2615 10.9406C17.8863 10.935 17.5152 11.0197 17.1795 11.1876C16.8845 11.3366 16.6885 11.5346 16.4915 11.7326C16.3094 11.9231 16.1894 12.1644 16.1475 12.4246C16.0975 12.6726 16.0485 12.8696 16.0485 13.0676H20.4745C20.3765 12.3256 20.1305 11.8316 19.7865 11.4846ZM15.4585 6.28961H20.9665V7.62561H15.4595L15.4585 6.28961Z" fill="#1A202C"/>
</svg>
