<svg width="24" height="24" viewBox="0 0 24 24" fill="none" xmlns="http://www.w3.org/2000/svg">
<path d="M12 3.99991L12.759 3.34891C12.6651 3.23947 12.5487 3.15163 12.4177 3.0914C12.2867 3.03118 12.1442 3 12 3C11.8558 3 11.7133 3.03118 11.5823 3.0914C11.4513 3.15163 11.3349 3.23947 11.241 3.34891L12 3.99991ZM12 3.99991L11.24 3.34991V3.35091L11.235 3.35491L11.222 3.37091L11.007 3.63191C10.1425 4.71635 9.3517 5.85758 8.64 7.04791C7.367 9.18991 6 12.1329 6 14.9999H8C8 12.6899 9.133 10.1339 10.36 8.06991C11.0227 6.96171 11.7587 5.89902 12.563 4.88891L12.759 4.65091L12 3.99991ZM18 14.9999C18 12.1329 16.633 9.18991 15.36 7.04791C14.6483 5.85758 13.8575 4.71635 12.993 3.63191L12.778 3.37091L12.765 3.35491L12.761 3.35091L12.759 3.34891L12 3.99991L11.241 4.65091L11.243 4.65291L11.288 4.70691C11.322 4.74691 11.3717 4.80758 11.437 4.88891C12.2413 5.89902 12.9773 6.96171 13.64 8.06991C14.866 10.1339 16 12.6899 16 14.9999H18ZM16 14.9999C16 16.0608 15.5786 17.0782 14.8284 17.8283C14.0783 18.5785 13.0609 18.9999 12 18.9999V20.9999C13.5913 20.9999 15.1174 20.3678 16.2426 19.2425C17.3679 18.1173 18 16.5912 18 14.9999H16ZM12 18.9999C10.9391 18.9999 9.92172 18.5785 9.17157 17.8283C8.42143 17.0782 8 16.0608 8 14.9999H6C6 16.5912 6.63214 18.1173 7.75736 19.2425C8.88258 20.3678 10.4087 20.9999 12 20.9999V18.9999Z" fill="#1A202C"/>
</svg>
