<svg width="24" height="24" viewBox="0 0 24 24" fill="none" xmlns="http://www.w3.org/2000/svg">
<path d="M14.3241 8.00009C14.3241 7.73485 14.4296 7.48047 14.6174 7.29292C14.8052 7.10537 15.0599 7 15.3255 7H19.9986C20.2642 7 20.5189 7.10537 20.7067 7.29292C20.8945 7.48047 21 7.73485 21 8.00009V12.6672C21 12.9324 20.8945 13.1868 20.7067 13.3743C20.5189 13.5619 20.2642 13.6673 19.9986 13.6673C19.733 13.6673 19.4783 13.5619 19.2905 13.3743C19.1027 13.1868 18.9972 12.9324 18.9972 12.6672V10.4136L12.6952 16.7075C12.5074 16.8948 12.2529 17 11.9875 17C11.7221 17 11.4676 16.8948 11.2799 16.7075L7.98196 13.4139L4.68406 16.7075C4.49423 16.8842 4.24315 16.9803 3.98372 16.9758C3.72429 16.9712 3.47677 16.8662 3.2933 16.683C3.10983 16.4998 3.00473 16.2526 3.00016 15.9935C2.99558 15.7344 3.09188 15.4836 3.26876 15.2941L7.27431 11.2937C7.46207 11.1064 7.71659 11.0012 7.98196 11.0012C8.24733 11.0012 8.50185 11.1064 8.68961 11.2937L11.9875 14.5873L17.5819 9.00018H15.3255C15.0599 9.00018 14.8052 8.89481 14.6174 8.70726C14.4296 8.5197 14.3241 8.26533 14.3241 8.00009Z" fill="#1A202C"/>
</svg>
