<svg width="24" height="24" viewBox="0 0 24 24" fill="none" xmlns="http://www.w3.org/2000/svg">
<path d="M9.67592 15.9999C9.67592 16.2652 9.57041 16.5195 9.38262 16.7071C9.19482 16.8946 8.94011 17 8.67453 17H4.00139C3.7358 17 3.4811 16.8946 3.2933 16.7071C3.1055 16.5195 3 16.2652 3 15.9999V11.3328C3 11.0676 3.1055 10.8132 3.2933 10.6257C3.4811 10.4381 3.7358 10.3327 4.00139 10.3327C4.26697 10.3327 4.52168 10.4381 4.70948 10.6257C4.89727 10.8132 5.00278 11.0676 5.00278 11.3328V13.5864L11.3048 7.29248C11.4926 7.1052 11.7471 7 12.0125 7C12.2779 7 12.5324 7.1052 12.7201 7.29248L16.018 10.5861L19.3159 7.29248C19.5058 7.11582 19.7569 7.01965 20.0163 7.02422C20.2757 7.02879 20.5232 7.13375 20.7067 7.31699C20.8902 7.50022 20.9953 7.74742 20.9998 8.00651C21.0044 8.2656 20.9081 8.51635 20.7312 8.70594L16.7257 12.7063C16.5379 12.8936 16.2834 12.9988 16.018 12.9988C15.7527 12.9988 15.4982 12.8936 15.3104 12.7063L12.0125 9.41267L6.41807 14.9998H8.67453C8.94011 14.9998 9.19482 15.1052 9.38262 15.2927C9.57041 15.4803 9.67592 15.7347 9.67592 15.9999Z" fill="#1A202C"/>
</svg>
