<svg width="24" height="24" viewBox="0 0 24 24" fill="none" xmlns="http://www.w3.org/2000/svg">
<path d="M2 17.25C2 17.6111 2.07113 17.9687 2.20933 18.3024C2.34753 18.636 2.55009 18.9392 2.80546 19.1945C3.06082 19.4499 3.36398 19.6525 3.69762 19.7907C4.03127 19.9289 4.38886 20 4.75 20H19.25C19.6111 20 19.9687 19.9289 20.3024 19.7907C20.636 19.6525 20.9392 19.4499 21.1945 19.1945C21.4499 18.9392 21.6525 18.636 21.7907 18.3024C21.9289 17.9687 22 17.6111 22 17.25V6.75C22 6.02065 21.7103 5.32118 21.1945 4.80546C20.6788 4.28973 19.9793 4 19.25 4H4.75C4.02065 4 3.32118 4.28973 2.80546 4.80546C2.28973 5.32118 2 6.02065 2 6.75V17.25ZM4.75 18.5C4.06 18.5 3.5 17.94 3.5 17.25V6.749C3.5 6.059 4.06 5.499 4.75 5.499H8.004V18.5H4.75ZM9.504 18.5V5.5H19.25C19.94 5.5 20.5 6.06 20.5 6.75V17.25C20.5 17.94 19.94 18.5 19.25 18.5H9.504Z" fill="#1A202C"/>
</svg>
