<svg width="24" height="24" viewBox="0 0 24 24" fill="none" xmlns="http://www.w3.org/2000/svg">
<g clip-path="url(#clip0_121022_3166)">
<path d="M18.9969 16.8925C20.2115 16.6459 21.2911 15.9567 22.0261 14.9589C22.7612 13.9611 23.0992 12.7257 22.9747 11.4926C22.8501 10.2596 22.2719 9.11677 21.3521 8.28609C20.4324 7.4554 19.2368 6.9961 17.9974 6.99735H16.738C16.4069 5.7153 15.7626 4.53555 14.8629 3.56402C13.9632 2.5925 12.8363 1.85961 11.5834 1.43115C10.3305 1.00269 8.99083 0.892085 7.68464 1.10925C6.37844 1.32642 5.14662 1.86457 4.09977 2.67538C3.05292 3.4862 2.22382 4.54429 1.68689 5.75467C1.14996 6.96505 0.922022 8.28982 1.02353 9.61005C1.12505 10.9303 1.55284 12.2046 2.26849 13.3187C2.98415 14.4328 3.96527 15.3517 5.12376 15.9929" stroke="#1A202C" stroke-width="2" stroke-linecap="round" stroke-linejoin="round"/>
<path d="M13 11L9 17H15L11 23" stroke="#1A202C" stroke-width="2" stroke-linecap="round" stroke-linejoin="round"/>
</g>
<defs>
<clipPath id="clip0_121022_3166">
<rect width="24" height="24" fill="white"/>
</clipPath>
</defs>
</svg>
