<svg width="24" height="24" viewBox="0 0 24 24" fill="none" xmlns="http://www.w3.org/2000/svg">
<path d="M3.795 13.6113L4.4955 14.9913C4.0155 15.4638 3.75 15.9783 3.75 16.5003C3.75 18.4293 7.3905 20.2503 12 20.2503C16.6095 20.2503 20.25 18.4293 20.25 16.5003C20.25 15.9783 19.983 15.4653 19.5045 14.9928L20.2185 13.6233C21.186 14.4333 21.75 15.4143 21.75 16.5003C21.75 19.5408 17.331 21.7503 12 21.7503C6.669 21.7503 2.25 19.5408 2.25 16.5003C2.25 15.4083 2.82 14.4243 3.795 13.6113Z" fill="#1A202C"/>
<path d="M3.795 9.11133L4.4955 10.4913C4.0155 10.9653 3.75 11.4798 3.75 12.0003C3.75 13.9293 7.3905 15.7503 12 15.7503C16.6095 15.7503 20.25 13.9293 20.25 12.0003C20.25 11.4783 19.983 10.9653 19.5045 10.4928L20.2185 9.12333C21.186 9.93333 21.75 10.9143 21.75 12.0003C21.75 15.0408 17.331 17.2503 12 17.2503C6.669 17.2503 2.25 15.0408 2.25 12.0003C2.25 10.9083 2.82 9.92433 3.795 9.11133Z" fill="#1A202C"/>
<path d="M12 12.75C6.669 12.75 2.25 10.5405 2.25 7.5C2.25 4.4595 6.669 2.25 12 2.25C17.331 2.25 21.75 4.4595 21.75 7.5C21.75 10.5405 17.331 12.75 12 12.75ZM12 11.25C16.6095 11.25 20.25 9.429 20.25 7.5C20.25 5.571 16.6095 3.75 12 3.75C7.3905 3.75 3.75 5.571 3.75 7.5C3.75 9.429 7.3905 11.25 12 11.25Z" fill="#1A202C"/>
</svg>
