<svg width="24" height="24" viewBox="0 0 24 24" fill="none" xmlns="http://www.w3.org/2000/svg">
<path d="M10.876 23V13.124M10.876 23L2.16043 17.5522C1.59256 17.1979 1.30862 17.0213 1.15431 16.7423C1 16.4633 1 16.1275 1 15.4572V6.95152M10.876 23L15.814 19.9138L19.5915 17.5522C20.1594 17.1979 20.4434 17.0213 20.5977 16.7423C20.752 16.4633 20.752 16.1275 20.752 15.4584V6.95152M10.876 13.124L1 6.95152M10.876 13.124L20.752 6.95152M1 6.95152L9.56742 1.5975C10.2044 1.19875 10.5217 1 10.876 1C11.2303 1 11.5476 1.19875 12.1846 1.5975L20.752 6.95152" stroke="#1A202C" stroke-width="1.5" stroke-linejoin="round"/>
<path d="M14.5797 14.976C14.5797 15.3034 14.7098 15.6174 14.9413 15.8489C15.1728 16.0804 15.4868 16.2105 15.8142 16.2105C16.1416 16.2105 16.4556 16.0804 16.6871 15.8489C16.9186 15.6174 17.0487 15.3034 17.0487 14.976H14.5797ZM5.28394 4.91109L13.9995 10.3589L15.3081 8.26523L6.5925 2.81738L5.28394 4.91109ZM17.0487 14.976V11.4058H14.5797V14.976H17.0487ZM13.9995 10.3589C14.3032 10.549 14.4563 10.6466 14.56 10.7256C14.6427 10.7898 14.613 10.7824 14.5797 10.7219L16.7401 9.52441C16.5692 9.22747 16.3384 8.96933 16.0623 8.76643C15.8438 8.59854 15.5722 8.42941 15.3081 8.26523L13.9995 10.3589ZM17.0487 11.4058C17.0487 11.0947 17.0499 10.7762 17.024 10.5009C16.998 10.1597 16.9001 9.82754 16.7389 9.52565L14.5797 10.7231C14.5464 10.6614 14.555 10.633 14.5661 10.7355C14.5785 10.8663 14.5797 11.049 14.5797 11.4058H17.0487Z" fill="#1A202C"/>
</svg>
