<svg width="24" height="24" viewBox="0 0 24 24" fill="none" xmlns="http://www.w3.org/2000/svg">
<path d="M11.5 10L9.5 9L7 12M15.5 19.483C14.9366 20.2633 14.1958 20.8985 13.3386 21.3362C12.4814 21.7738 11.5324 22.0013 10.57 22C7.217 22 4.5 19.295 4.5 15.958C4.5 15.083 4.664 14.251 5 13.5M12.65 8L11.896 9.846C11.13 11.725 10.747 12.664 11.183 13.332C11.619 14 12.615 14 14.607 14C15.301 14 15.971 13.82 16.357 14.496L19.5 20M14 6C13.4696 6 12.9609 5.78929 12.5858 5.41421C12.2107 5.03914 12 4.53043 12 4C12 3.46957 12.2107 2.96086 12.5858 2.58579C12.9609 2.21071 13.4696 2 14 2C14.5304 2 15.0391 2.21071 15.4142 2.58579C15.7893 2.96086 16 3.46957 16 4C16 4.53043 15.7893 5.03914 15.4142 5.41421C15.0391 5.78929 14.5304 6 14 6Z" stroke="#1A202C" stroke-width="1.5" stroke-linecap="round" stroke-linejoin="round"/>
</svg>
