<svg width="24" height="24" viewBox="0 0 24 24" fill="none" xmlns="http://www.w3.org/2000/svg">
<g clip-path="url(#clip0_121022_3772)">
<path d="M20.0399 8.71043V4.00043H15.3399L11.9999 0.69043L8.70994 4.00043H3.99994V8.71043L0.689941 12.0004L3.99994 15.3404V20.0404H8.70994L11.9999 23.3504L15.3399 20.0404H20.0399V15.3404L23.3499 12.0004L20.0399 8.71043ZM8.82994 7.05043C9.80994 7.05043 10.5999 7.84043 10.5999 8.83043C10.5999 9.29986 10.4135 9.75007 10.0815 10.082C9.74958 10.4139 9.29937 10.6004 8.82994 10.6004C7.83994 10.6004 7.04994 9.81043 7.04994 8.83043C7.04994 7.84043 7.83994 7.05043 8.82994 7.05043ZM15.2199 17.0004C14.2399 17.0004 13.4499 16.2004 13.4499 15.2204C13.4499 14.751 13.6364 14.3008 13.9684 13.9689C14.3003 13.6369 14.7505 13.4504 15.2199 13.4504C16.1999 13.4504 16.9999 14.2404 16.9999 15.2204C16.9999 15.6925 16.8124 16.1453 16.4786 16.4791C16.1448 16.8129 15.692 17.0004 15.2199 17.0004ZM8.49994 17.0304L6.99994 15.5304L15.5299 7.00043L17.0299 8.50043L8.49994 17.0304Z" fill="#1A202C"/>
</g>
<defs>
<clipPath id="clip0_121022_3772">
<rect width="24" height="24" fill="white"/>
</clipPath>
</defs>
</svg>
