<svg width="24" height="24" viewBox="0 0 24 24" fill="none" xmlns="http://www.w3.org/2000/svg">
<path d="M16.0845 8.02741C15.9845 7.74459 15.7994 7.49969 15.5545 7.32642C15.3096 7.15314 15.0171 7.06 14.7171 7.05981H13.5929C13.2748 7.06149 12.9683 7.18028 12.7321 7.39349C12.496 7.6067 12.3465 7.89941 12.3124 8.21576C12.2783 8.53211 12.3618 8.84996 12.5471 9.10865C12.7324 9.36733 13.0064 9.54874 13.3169 9.61827L15.0273 9.9925C15.3763 10.0696 15.6846 10.2727 15.8931 10.5631C16.1017 10.8534 16.1957 11.2104 16.1573 11.5658C16.1189 11.9212 15.9507 12.2499 15.6849 12.4889C15.4191 12.7279 15.0745 12.8605 14.7171 12.8612H13.7495C13.4495 12.861 13.1569 12.7678 12.9121 12.5946C12.6672 12.4213 12.482 12.1764 12.382 11.8936M14.2333 7.05981V5.6084M14.2333 14.3112V12.8597" stroke="#1A202C" stroke-width="1.2" stroke-linecap="round" stroke-linejoin="round"/>
<path d="M3.84282 10.7223C3.13967 12.0178 2.86604 13.503 3.06139 14.964C3.25674 16.4249 3.91098 17.7861 4.92978 18.8513C5.94858 19.9165 7.27932 20.6306 8.73014 20.8908C10.181 21.1509 11.6769 20.9436 13.0023 20.2988M7.27355 9.95964C7.27355 11.8055 8.0068 13.5757 9.31198 14.8809C10.6172 16.186 12.3874 16.9193 14.2332 16.9193C16.079 16.9193 17.8492 16.186 19.1544 14.8809C20.4596 13.5757 21.1928 11.8055 21.1928 9.95964C21.1928 8.11383 20.4596 6.34362 19.1544 5.03843C17.8492 3.73325 16.079 3 14.2332 3C12.3874 3 10.6172 3.73325 9.31198 5.03843C8.0068 6.34362 7.27355 8.11383 7.27355 9.95964Z" stroke="#1A202C" stroke-width="1.2" stroke-linecap="round" stroke-linejoin="round"/>
</svg>
