<svg width="24" height="24" viewBox="0 0 24 24" fill="none" xmlns="http://www.w3.org/2000/svg">
<path d="M12.0002 22C17.5231 22 22.0002 17.5228 22.0002 12C22.0002 6.47715 17.5231 2 12.0002 2C6.4774 2 2.00024 6.47715 2.00024 12C2.00024 17.5228 6.4774 22 12.0002 22Z" stroke="#1A202C" stroke-width="0.6" stroke-linecap="round" stroke-linejoin="round"/>
<path d="M21.9998 13.264C21.0589 13.0881 20.1039 12.9997 19.1468 13C13.7948 13 9.03376 15.742 5.99976 20M18.9998 5C15.8698 8.667 11.1678 11 5.90976 11C4.56376 11 3.25476 10.847 1.99976 10.559" stroke="#1A202C" stroke-width="0.6" stroke-linecap="round" stroke-linejoin="round"/>
<path d="M14.6178 22C14.8724 20.7629 15.0004 19.5031 14.9998 18.24C14.9998 11.926 11.8338 6.347 6.99976 3" stroke="#1A202C" stroke-width="0.6" stroke-linecap="round" stroke-linejoin="round"/>
</svg>
