<svg width="24" height="24" viewBox="0 0 24 24" fill="none" xmlns="http://www.w3.org/2000/svg">
<path d="M17.9176 2.38718C17.5744 2.52932 17.2626 2.73766 17 3.0003L3.5 16.5003L2 22.0003L7.5 20.5003L21 7.0003C21.2626 6.73766 21.471 6.42585 21.6131 6.08269C21.7553 5.73953 21.8284 5.37174 21.8284 5.0003C21.8284 4.62887 21.7553 4.26107 21.6131 3.91791C21.471 3.57475 21.2626 3.26295 21 3.0003C20.7374 2.73766 20.4256 2.52932 20.0824 2.38718C19.7392 2.24503 19.3714 2.17188 19 2.17188C18.6286 2.17188 18.2608 2.24503 17.9176 2.38718Z" stroke="#1A202C" stroke-width="2" stroke-linecap="round" stroke-linejoin="round"/>
</svg>
