<svg width="24" height="24" viewBox="0 0 24 24" fill="none" xmlns="http://www.w3.org/2000/svg">
<path d="M20.2422 13.2457C20.2422 13.3314 20.2714 13.4172 20.3245 13.4857L21.4679 14.9257C21.675 15.1843 21.7992 15.4994 21.8242 15.8297C21.8493 16.1601 21.7741 16.4903 21.6085 16.7772L20.9365 17.936C20.7712 18.2228 20.5233 18.4531 20.2252 18.5969C19.927 18.7406 19.5924 18.7911 19.2651 18.7417L17.4428 18.4674C17.3571 18.4552 17.2697 18.4714 17.1942 18.5137L15.0342 19.76C14.9598 19.8042 14.9019 19.8717 14.8696 19.952L14.1976 21.6663C14.0773 21.9746 13.8669 22.2394 13.5938 22.4262C13.3208 22.6131 12.9977 22.7133 12.6668 22.7137H11.3262C10.9955 22.7134 10.6726 22.6135 10.3995 22.4269C10.1265 22.2404 9.91592 21.9759 9.79536 21.668L9.12336 19.9537C9.09139 19.8728 9.03352 19.8046 8.95879 19.76L6.8005 18.5137C6.72517 18.4708 6.63781 18.454 6.55193 18.4657L4.72964 18.7434C4.40206 18.7932 4.0671 18.7429 3.76857 18.5991C3.47005 18.4554 3.22187 18.2248 3.0565 17.9377L2.38793 16.7772C2.22182 16.4906 2.14604 16.1606 2.17051 15.8303C2.19498 15.4999 2.31855 15.1847 2.52507 14.9257L3.67364 13.4857C3.7292 13.4181 3.7595 13.3333 3.75936 13.2457V10.7532C3.75936 10.6674 3.7285 10.5817 3.67364 10.5132L2.52507 9.07316C2.31855 8.8142 2.19498 8.49895 2.17051 8.16863C2.14604 7.83831 2.22182 7.50829 2.38793 7.22173L3.0565 6.06287C3.22187 5.77575 3.47005 5.54523 3.76857 5.40148C4.0671 5.25772 4.40206 5.20742 4.72964 5.25716L6.54679 5.53144C6.63248 5.54372 6.71983 5.52745 6.79536 5.48516L8.95879 4.23373C9.03352 4.18909 9.09139 4.12098 9.12336 4.04001L9.79879 2.33258C9.91919 2.02406 10.1299 1.75904 10.4033 1.57217C10.6767 1.38529 11.0002 1.28526 11.3314 1.28516H12.6754C13.0061 1.28547 13.329 1.38541 13.602 1.57194C13.8751 1.75847 14.0856 2.02294 14.2062 2.33087L14.8782 4.04001C14.9102 4.12573 14.9651 4.19201 15.0428 4.23887L17.2028 5.48516C17.2781 5.52805 17.3655 5.54491 17.4514 5.53316L19.2719 5.25544C19.5995 5.2057 19.9345 5.256 20.233 5.39976C20.5315 5.54352 20.7797 5.77404 20.9451 6.06116L21.6154 7.22173C21.7812 7.50846 21.8567 7.83857 21.8319 8.16889C21.8072 8.49922 21.6833 8.81438 21.4765 9.07316L20.3279 10.5132C20.273 10.581 20.2433 10.6658 20.2439 10.7532V13.2457H20.2422Z" stroke="#1A202C" stroke-width="1.71429" stroke-linecap="round" stroke-linejoin="round"/>
<path d="M11.9998 15.4206C14.189 15.4206 15.4216 14.188 15.4216 11.9989C15.4216 9.80972 14.189 8.57715 11.9998 8.57715C9.8107 8.57715 8.57812 9.80972 8.57812 11.9989C8.57812 14.188 9.8107 15.4206 11.9998 15.4206Z" stroke="#1A202C" stroke-width="1.71429" stroke-linecap="round" stroke-linejoin="round"/>
</svg>
