<svg width="24" height="24" viewBox="0 0 24 24" fill="none" xmlns="http://www.w3.org/2000/svg">
<g clip-path="url(#clip0_121022_3294)">
<path d="M11.9999 22.1302L22.6499 14.3902C22.8016 14.292 22.9176 14.1475 22.9806 13.9782C23.0437 13.8088 23.0504 13.6237 22.9999 13.4502L21.7299 9.6902L19.2899 2.18021C19.2691 2.11182 19.2313 2.04987 19.1799 2.00021C19.1007 1.92783 18.9972 1.8877 18.8899 1.8877C18.7826 1.8877 18.6791 1.92783 18.5999 2.00021C18.5512 2.04421 18.5136 2.09901 18.4899 2.16021L16.0499 9.67021H7.9499L5.5099 2.18021C5.48914 2.11182 5.45128 2.04987 5.3999 2.00021C5.32066 1.92783 5.21722 1.8877 5.1099 1.8877C5.00258 1.8877 4.89914 1.92783 4.8199 2.00021C4.77124 2.04421 4.73357 2.09901 4.7099 2.16021L2.2699 9.67021L1.0499 13.4502C0.994348 13.6185 0.99345 13.8001 1.04733 13.9689C1.10122 14.1377 1.20713 14.2852 1.3499 14.3902L11.9999 22.1302Z" stroke="#1A202C" stroke-width="2" stroke-linecap="round" stroke-linejoin="round"/>
</g>
<defs>
<clipPath id="clip0_121022_3294">
<rect width="24" height="24" fill="white"/>
</clipPath>
</defs>
</svg>
