<svg width="24" height="24" viewBox="0 0 24 24" fill="none" xmlns="http://www.w3.org/2000/svg">
<path d="M21.3077 2H2.69231C2.24348 2 1.81303 2.1783 1.49567 2.49567C1.1783 2.81303 1 3.24348 1 3.69231V20.6154C0.999897 20.7597 1.0367 20.9016 1.10692 21.0277C1.17713 21.1538 1.27842 21.2598 1.40116 21.3357C1.5239 21.4116 1.66401 21.4548 1.80817 21.4613C1.95233 21.4678 2.09576 21.4373 2.22481 21.3727L5.23077 19.8687L8.23673 21.3727C8.35429 21.4315 8.48393 21.4621 8.61538 21.4621C8.74684 21.4621 8.87648 21.4315 8.99404 21.3727L12 19.8687L15.006 21.3727C15.1235 21.4315 15.2532 21.4621 15.3846 21.4621C15.5161 21.4621 15.6457 21.4315 15.7633 21.3727L18.7692 19.8687L21.7752 21.3727C21.9042 21.4373 22.0477 21.4678 22.1918 21.4613C22.336 21.4548 22.4761 21.4116 22.5988 21.3357C22.7216 21.2598 22.8229 21.1538 22.8931 21.0277C22.9633 20.9016 23.0001 20.7597 23 20.6154V3.69231C23 3.24348 22.8217 2.81303 22.5043 2.49567C22.187 2.1783 21.7565 2 21.3077 2ZM21.3077 19.2467L19.1479 18.1658C19.0303 18.1069 18.9007 18.0763 18.7692 18.0763C18.6378 18.0763 18.5081 18.1069 18.3906 18.1658L15.3846 19.6698L12.3787 18.1658C12.2611 18.1069 12.1315 18.0763 12 18.0763C11.8685 18.0763 11.7389 18.1069 11.6213 18.1658L8.61538 19.6698L5.60942 18.1658C5.49187 18.1069 5.36222 18.0763 5.23077 18.0763C5.09932 18.0763 4.96967 18.1069 4.85212 18.1658L2.69231 19.2467V3.69231H21.3077V19.2467ZM4.85212 15.4496C4.95155 15.4994 5.05983 15.5291 5.17076 15.537C5.28169 15.545 5.39309 15.5309 5.49859 15.4958C5.60409 15.4606 5.70163 15.405 5.78562 15.3321C5.86961 15.2592 5.93841 15.1705 5.98808 15.071L6.59942 13.8462H10.6313L11.2427 15.071C11.2924 15.1704 11.3612 15.2591 11.4452 15.3319C11.5292 15.4048 11.6268 15.4604 11.7323 15.4956C11.8377 15.5307 11.9491 15.5448 12.06 15.5369C12.1709 15.529 12.2792 15.4993 12.3787 15.4496C12.4781 15.3999 12.5668 15.3311 12.6396 15.2471C12.7125 15.1631 12.7681 15.0655 12.8032 14.9601C12.8384 14.8546 12.8524 14.7432 12.8446 14.6323C12.8367 14.5214 12.807 14.4131 12.7573 14.3137L9.37269 7.54442C9.30252 7.40362 9.19447 7.28516 9.0607 7.20237C8.92692 7.11957 8.77271 7.07571 8.61538 7.07571C8.45806 7.07571 8.30385 7.11957 8.17007 7.20237C8.0363 7.28516 7.92825 7.40362 7.85808 7.54442L4.47346 14.3137C4.42366 14.4131 4.39396 14.5214 4.38604 14.6323C4.37812 14.7432 4.39214 14.8546 4.42731 14.9601C4.46248 15.0656 4.5181 15.1632 4.59099 15.2472C4.66388 15.3311 4.75261 15.3999 4.85212 15.4496ZM8.61538 9.81529L9.78519 12.1538H7.44558L8.61538 9.81529ZM12.8462 11.3077C12.8462 11.0833 12.9353 10.8681 13.094 10.7094C13.2527 10.5507 13.4679 10.4615 13.6923 10.4615H15.3846V8.76923C15.3846 8.54482 15.4738 8.3296 15.6324 8.17091C15.7911 8.01223 16.0064 7.92308 16.2308 7.92308C16.4552 7.92308 16.6704 8.01223 16.8291 8.17091C16.9878 8.3296 17.0769 8.54482 17.0769 8.76923V10.4615H18.7692C18.9936 10.4615 19.2089 10.5507 19.3676 10.7094C19.5262 10.8681 19.6154 11.0833 19.6154 11.3077C19.6154 11.5321 19.5262 11.7473 19.3676 11.906C19.2089 12.0647 18.9936 12.1538 18.7692 12.1538H17.0769V13.8462C17.0769 14.0706 16.9878 14.2858 16.8291 14.4445C16.6704 14.6032 16.4552 14.6923 16.2308 14.6923C16.0064 14.6923 15.7911 14.6032 15.6324 14.4445C15.4738 14.2858 15.3846 14.0706 15.3846 13.8462V12.1538H13.6923C13.4679 12.1538 13.2527 12.0647 13.094 11.906C12.9353 11.7473 12.8462 11.5321 12.8462 11.3077Z" fill="black"/>
</svg>
