<svg width="24" height="24" viewBox="0 0 24 24" fill="none" xmlns="http://www.w3.org/2000/svg">
<path d="M20.1301 4.15511C19.5337 3.64467 18.8255 3.28181 18.0629 3.09592C17.3002 2.91003 16.5045 2.90633 15.7401 3.08511C14.2034 3.42158 12.8604 4.34809 12.0001 5.66511C11.1446 4.35236 9.80942 3.42637 8.2801 3.08511C7.51917 2.90234 6.72635 2.89748 5.96324 3.07091C5.20013 3.24434 4.48728 3.5914 3.8801 4.08511C2.3001 5.46511 1.4301 8.52511 2.4201 11.6251C2.5321 11.9678 2.66543 12.3011 2.8201 12.6251C2.8601 12.7004 2.89677 12.7771 2.9301 12.8551C5.5001 18.0951 11.4401 20.8551 11.7001 20.9851C11.7967 21.0319 11.9028 21.0559 12.0101 21.0551C12.1174 21.0559 12.2235 21.0319 12.3201 20.9851C12.5701 20.8751 18.5701 18.1351 21.1201 12.8351L21.2001 12.6651C21.3581 12.3251 21.4948 11.9751 21.6101 11.6151C22.5501 8.61511 21.6901 5.55511 20.1301 4.15511ZM19.8201 12.0851C19.6801 12.3991 19.5201 12.7024 19.3401 12.9951H16.0301C15.8654 12.9943 15.7034 12.9527 15.5586 12.8742C15.4139 12.7957 15.2907 12.6827 15.2001 12.5451L14.1501 10.9851L11.9201 15.4451C11.8497 15.5863 11.7468 15.7089 11.6199 15.8027C11.493 15.8966 11.3458 15.9591 11.1901 15.9851H11.0301C10.8978 15.9846 10.7669 15.9578 10.645 15.9063C10.5232 15.8548 10.4127 15.7796 10.3201 15.6851L7.6101 12.9851H4.7001C4.5161 12.6611 4.34943 12.3278 4.2001 11.9851C4.04531 11.6632 3.91819 11.3286 3.8201 10.9851H8.0301C8.16171 10.9844 8.29217 11.0096 8.41401 11.0593C8.53584 11.1091 8.64666 11.1824 8.7401 11.2751L10.7401 13.2751L13.1201 8.51511C13.1992 8.35752 13.3186 8.22364 13.4661 8.12705C13.6136 8.03046 13.784 7.97459 13.9601 7.96511C14.1339 7.95461 14.3075 7.98969 14.4636 8.06686C14.6197 8.14403 14.7529 8.26063 14.8501 8.40511L16.5501 10.9651H20.2501C20.1408 11.3518 19.9974 11.7251 19.8201 12.0851Z" fill="#1A202C"/>
</svg>
