<svg width="24" height="24" viewBox="0 0 24 24" fill="none" xmlns="http://www.w3.org/2000/svg">
<path d="M14.25 1.5C14.0511 1.5 13.8603 1.57902 13.7197 1.71967C13.579 1.86032 13.5 2.05109 13.5 2.25C13.5 2.44891 13.579 2.63968 13.7197 2.78033C13.8603 2.92098 14.0511 3 14.25 3H18C18.3978 3 18.7794 3.15804 19.0607 3.43934C19.342 3.72064 19.5 4.10218 19.5 4.5V18C19.5 18.3978 19.342 18.7794 19.0607 19.0607C18.7794 19.342 18.3978 19.5 18 19.5H14.25C14.0511 19.5 13.8603 19.579 13.7197 19.7197C13.579 19.8603 13.5 20.0511 13.5 20.25C13.5 20.4489 13.579 20.6397 13.7197 20.7803C13.8603 20.921 14.0511 21 14.25 21H18C19.65 21 21 19.6575 21 18V4.5C21 2.85 19.6575 1.5 18 1.5H14.25Z" fill="#1A202C"/>
<path d="M10.2749 6.22518C10.1334 6.08856 9.94399 6.01297 9.74734 6.01468C9.5507 6.01639 9.36259 6.09526 9.22353 6.23432C9.08447 6.37337 9.0056 6.56148 9.00389 6.75813C9.00218 6.95478 9.07778 7.14423 9.2144 7.28568L12.4394 10.5107H2.25439C2.05548 10.5107 1.86472 10.5897 1.72406 10.7304C1.58341 10.871 1.50439 11.0618 1.50439 11.2607C1.50439 11.4596 1.58341 11.6504 1.72406 11.791C1.86472 11.9317 2.05548 12.0107 2.25439 12.0107H12.4394L9.2144 15.2357C9.07778 15.3771 9.00218 15.5666 9.00389 15.7632C9.0056 15.9599 9.08447 16.148 9.22353 16.287C9.36259 16.4261 9.5507 16.505 9.74734 16.5067C9.94399 16.5084 10.1334 16.4328 10.2749 16.2962L14.7749 11.7962C14.9155 11.6555 14.9945 11.4648 14.9945 11.2659C14.9945 11.0671 14.9155 10.8763 14.7749 10.7357L10.2749 6.23568V6.22518Z" fill="#1A202C"/>
</svg>
