<svg width="24" height="24" viewBox="0 0 24 24" fill="none" xmlns="http://www.w3.org/2000/svg">
<path d="M22 7C22 4.23858 19.7614 2 17 2H12H7C4.23858 2 2 4.23858 2 7V17C2 19.7614 4.23858 22 7 22H17C19.7614 22 22 19.7614 22 17V7Z" stroke="#1A202C" stroke-width="2" stroke-linecap="round" stroke-linejoin="round"/>
<path d="M15.5937 13.7993C15.9812 13.0525 16.1234 12.2025 16 11.3703C15.8741 10.5214 15.4785 9.73545 14.8716 9.12861C14.2648 8.52176 13.4789 8.12619 12.63 8.0003C11.7977 7.87689 10.9477 8.01904 10.2009 8.40654C9.45414 8.79404 8.84854 9.40716 8.47028 10.1587C8.09202 10.9102 7.96035 11.7619 8.09402 12.5925C8.22768 13.4232 8.61987 14.1905 9.21479 14.7855C9.80971 15.3804 10.5771 15.7726 11.4077 15.9062C12.2384 16.0399 13.0901 15.9082 13.8416 15.53C14.5931 15.1517 15.2062 14.5461 15.5937 13.7993Z" stroke="#1A202C" stroke-width="2" stroke-linecap="round" stroke-linejoin="round"/>
<path d="M17.5 6.5H17.51" stroke="#1A202C" stroke-width="2" stroke-linecap="round" stroke-linejoin="round"/>
</svg>
