<svg width="24" height="24" viewBox="0 0 24 24" fill="none" xmlns="http://www.w3.org/2000/svg">
<g clip-path="url(#clip0_121022_3368)">
<path d="M1 1L23 23" stroke="#1A202C" stroke-width="2" stroke-linecap="round" stroke-linejoin="round"/>
<path d="M9 9.00009V12.0001C9.00052 12.5931 9.17675 13.1726 9.50643 13.6654C9.83611 14.1583 10.3045 14.5424 10.8523 14.7692C11.4002 14.9961 12.0029 15.0555 12.5845 14.94C13.1661 14.8244 13.7005 14.5391 14.12 14.1201M15 9.34009V4.00009C15.0007 3.25612 14.725 2.53841 14.2264 1.98629C13.7277 1.43417 13.0417 1.08703 12.3015 1.01227C11.5613 0.937497 10.8197 1.14043 10.2207 1.58168C9.62172 2.02293 9.20805 2.671 9.06 3.40009" stroke="#1A202C" stroke-width="2" stroke-linecap="round" stroke-linejoin="round"/>
<path d="M16.9999 16.9107C16.0237 17.9015 14.7721 18.5796 13.4056 18.8582C12.039 19.1367 10.62 19.003 9.33044 18.4741C8.0409 17.9451 6.9397 17.0452 6.16811 15.8896C5.39652 14.7341 4.98974 13.3757 4.99994 11.9887V10M18.9999 10V11.9887C18.9996 12.3988 18.9628 12.8081 18.8899 13.2117" stroke="#1A202C" stroke-width="2" stroke-linecap="round" stroke-linejoin="round"/>
<path d="M12 19V23" stroke="#1A202C" stroke-width="2" stroke-linecap="round" stroke-linejoin="round"/>
<path d="M8 23H16" stroke="#1A202C" stroke-width="2" stroke-linecap="round" stroke-linejoin="round"/>
</g>
<defs>
<clipPath id="clip0_121022_3368">
<rect width="24" height="24" fill="white"/>
</clipPath>
</defs>
</svg>
