<svg width="24" height="24" viewBox="0 0 24 24" fill="none" xmlns="http://www.w3.org/2000/svg">
<path d="M8.40002 10.7998C8.40002 10.1633 8.65288 9.55284 9.10297 9.10275C9.55306 8.65266 10.1635 8.3998 10.8 8.3998C11.4365 8.3998 12.047 8.65266 12.4971 9.10275C12.9472 9.55284 13.2 10.1633 13.2 10.7998C13.2 11.4363 12.9472 12.0468 12.4971 12.4969C12.047 12.9469 11.4365 13.1998 10.8 13.1998C10.1635 13.1998 9.55306 12.9469 9.10297 12.4969C8.65288 12.0468 8.40002 11.4363 8.40002 10.7998ZM10.8 9.5998C10.4818 9.5998 10.1765 9.72623 9.9515 9.95128C9.72645 10.1763 9.60002 10.4815 9.60002 10.7998C9.60002 11.1181 9.72645 11.4233 9.9515 11.6483C10.1765 11.8734 10.4818 11.9998 10.8 11.9998C11.1183 11.9998 11.4235 11.8734 11.6486 11.6483C11.8736 11.4233 12 11.1181 12 10.7998C12 10.4815 11.8736 10.1763 11.6486 9.95128C11.4235 9.72623 11.1183 9.5998 10.8 9.5998ZM4.20002 4.7998C3.72263 4.7998 3.2648 4.98945 2.92723 5.32701C2.58967 5.66458 2.40002 6.12241 2.40002 6.5998V14.9998C2.40002 15.4772 2.58967 15.935 2.92723 16.2726C3.2648 16.6102 3.72263 16.7998 4.20002 16.7998H17.4C17.8774 16.7998 18.3353 16.6102 18.6728 16.2726C19.0104 15.935 19.2 15.4772 19.2 14.9998V6.5998C19.2 6.12241 19.0104 5.66458 18.6728 5.32701C18.3353 4.98945 17.8774 4.7998 17.4 4.7998H4.20002ZM3.60002 6.5998C3.60002 6.44067 3.66324 6.28806 3.77576 6.17554C3.88828 6.06302 4.04089 5.9998 4.20002 5.9998H6.00002V7.1998C6.00002 7.51806 5.8736 7.82329 5.64855 8.04833C5.42351 8.27338 5.11828 8.3998 4.80002 8.3998H3.60002V6.5998ZM3.60002 9.5998H4.80002C5.43654 9.5998 6.04699 9.34695 6.49708 8.89686C6.94717 8.44677 7.20002 7.83632 7.20002 7.1998V5.9998H14.4V7.1998C14.4 7.83632 14.6529 8.44677 15.103 8.89686C15.5531 9.34695 16.1635 9.5998 16.8 9.5998H18V11.9998H16.8C16.1635 11.9998 15.5531 12.2527 15.103 12.7027C14.6529 13.1528 14.4 13.7633 14.4 14.3998V15.5998H7.20002V14.3998C7.20002 13.7633 6.94717 13.1528 6.49708 12.7027C6.04699 12.2527 5.43654 11.9998 4.80002 11.9998H3.60002V9.5998ZM15.6 5.9998H17.4C17.5592 5.9998 17.7118 6.06302 17.8243 6.17554C17.9368 6.28806 18 6.44067 18 6.5998V8.3998H16.8C16.4818 8.3998 16.1765 8.27338 15.9515 8.04833C15.7265 7.82329 15.6 7.51806 15.6 7.1998V5.9998ZM18 13.1998V14.9998C18 15.1589 17.9368 15.3115 17.8243 15.4241C17.7118 15.5366 17.5592 15.5998 17.4 15.5998H15.6V14.3998C15.6 14.0815 15.7265 13.7763 15.9515 13.5513C16.1765 13.3262 16.4818 13.1998 16.8 13.1998H18ZM6.00002 15.5998H4.20002C4.04089 15.5998 3.88828 15.5366 3.77576 15.4241C3.66324 15.3115 3.60002 15.1589 3.60002 14.9998V13.1998H4.80002C5.11828 13.1998 5.42351 13.3262 5.64855 13.5513C5.8736 13.7763 6.00002 14.0815 6.00002 14.3998V15.5998ZM20.4 14.9998C20.4 15.7955 20.084 16.5585 19.5213 17.1211C18.9587 17.6837 18.1957 17.9998 17.4 17.9998H4.90202C5.02615 18.3509 5.25612 18.6548 5.56024 18.8698C5.86435 19.0847 6.22763 19.2 6.60002 19.1998H17.4C18.5139 19.1998 19.5822 18.7573 20.3699 17.9697C21.1575 17.182 21.6 16.1137 21.6 14.9998V8.9998C21.6002 8.62741 21.4849 8.26413 21.27 7.96002C21.0551 7.6559 20.7511 7.42594 20.4 7.3018V14.9998Z" fill="#1A202C"/>
</svg>
