<svg width="24" height="24" viewBox="0 0 24 24" fill="none" xmlns="http://www.w3.org/2000/svg">
<path d="M8.88996 15.4032C8.75828 15.4175 8.63075 15.4579 8.51479 15.5219C8.39884 15.5859 8.29675 15.6723 8.21446 15.7761C8.13218 15.8799 8.07133 15.999 8.03546 16.1265C7.99958 16.254 7.9894 16.3874 8.00549 16.5189C8.02159 16.6503 8.06364 16.7773 8.12921 16.8924C8.19478 17.0075 8.28256 17.1084 8.38746 17.1893C8.49235 17.2702 8.61227 17.3294 8.74025 17.3635C8.86822 17.3977 9.00171 17.4061 9.13296 17.3882C9.39344 17.3528 9.62948 17.2162 9.79 17.008C9.95053 16.7998 10.0226 16.5368 9.99067 16.2758C9.95873 16.0149 9.82532 15.777 9.61932 15.6137C9.41332 15.4504 9.1513 15.3748 8.88996 15.4032ZM5.54796 12.7892C5.53009 12.658 5.53848 12.5245 5.57263 12.3965C5.60678 12.2685 5.66602 12.1486 5.7469 12.0437C5.82778 11.9388 5.92869 11.851 6.04378 11.7855C6.15887 11.7199 6.28583 11.6778 6.41731 11.6618C6.54878 11.6457 6.68214 11.6558 6.80965 11.6917C6.93715 11.7276 7.05626 11.7884 7.16006 11.8707C7.26385 11.953 7.35027 12.0551 7.41428 12.1711C7.47829 12.287 7.51863 12.4145 7.53296 12.5462C7.56138 12.8076 7.48575 13.0696 7.32244 13.2756C7.15913 13.4816 6.92126 13.615 6.66033 13.6469C6.39939 13.6789 6.13638 13.6068 5.92819 13.4463C5.72001 13.2857 5.58341 13.0497 5.54796 12.7892ZM7.91896 7.46222C7.78728 7.47654 7.65975 7.51688 7.5438 7.58089C7.42784 7.64491 7.32575 7.73132 7.24346 7.83511C7.16118 7.93891 7.10033 8.05802 7.06446 8.18552C7.02858 8.31303 7.0184 8.44639 7.03449 8.57786C7.05059 8.70934 7.09264 8.83631 7.15821 8.95139C7.22378 9.06648 7.31156 9.16739 7.41646 9.24827C7.52135 9.32915 7.64127 9.38839 7.76925 9.42254C7.89722 9.45669 8.03071 9.46508 8.16196 9.44722C8.42244 9.41176 8.65848 9.27516 8.819 9.06698C8.97953 8.8588 9.05162 8.59578 9.01967 8.33484C8.98773 8.07391 8.85432 7.83604 8.64832 7.67273C8.44232 7.50942 8.1803 7.43379 7.91896 7.46222ZM15.697 9.28122C15.681 9.15081 15.6909 9.01855 15.726 8.89196C15.7612 8.76538 15.821 8.64696 15.9019 8.54347C15.9828 8.43998 16.0833 8.35344 16.1977 8.2888C16.3121 8.22416 16.4381 8.18267 16.5685 8.16672C16.6989 8.15076 16.8311 8.16065 16.9577 8.19581C17.0843 8.23097 17.2027 8.29072 17.3062 8.37165C17.4097 8.45257 17.4962 8.55309 17.5609 8.66746C17.6255 8.78183 17.667 8.90781 17.683 9.03822C17.7152 9.30158 17.6415 9.56695 17.478 9.77596C17.3146 9.98497 17.0748 10.1205 16.8115 10.1527C16.5481 10.1849 16.2827 10.1112 16.0737 9.94779C15.8647 9.78435 15.7292 9.54458 15.697 9.28122ZM11.993 10.8792C11.8609 10.893 11.7329 10.9329 11.6164 10.9967C11.4999 11.0605 11.3973 11.1468 11.3146 11.2507C11.2318 11.3545 11.1706 11.4738 11.1345 11.6016C11.0983 11.7293 11.088 11.863 11.104 11.9948C11.1201 12.1267 11.1623 12.2539 11.2281 12.3693C11.2938 12.4846 11.3819 12.5857 11.4872 12.6666C11.5925 12.7476 11.7128 12.8067 11.8412 12.8406C11.9696 12.8746 12.1034 12.8826 12.235 12.8642C12.4946 12.828 12.7297 12.6912 12.8895 12.4833C13.0493 12.2754 13.1211 12.0131 13.0893 11.7528C13.0576 11.4925 12.9249 11.2551 12.7198 11.0917C12.5148 10.9283 12.2537 10.852 11.993 10.8792ZM11.393 7.03722C11.3751 6.90597 11.3835 6.77248 11.4176 6.64451C11.4518 6.51653 11.511 6.39661 11.5919 6.29172C11.6728 6.18682 11.7737 6.09904 11.8888 6.03347C12.0039 5.9679 12.1308 5.92585 12.2623 5.90975C12.3938 5.89366 12.5271 5.90384 12.6546 5.93972C12.7822 5.97559 12.9013 6.03644 13.0051 6.11872C13.1089 6.20101 13.1953 6.3031 13.2593 6.41906C13.3233 6.53502 13.3636 6.66254 13.378 6.79422C13.4064 7.05556 13.3308 7.31758 13.1674 7.52358C13.0041 7.72958 12.7663 7.86299 12.5053 7.89493C12.2444 7.92688 11.9814 7.85479 11.7732 7.69426C11.565 7.53374 11.4284 7.2977 11.393 7.03722Z" fill="#1A202C"/>
<path fill-rule="evenodd" clip-rule="evenodd" d="M2.2529 11.7639C2.3829 6.37994 6.8529 2.12194 12.2359 2.25294C17.6189 2.38294 21.8779 6.85294 21.7469 12.2359C21.7417 12.5683 21.6239 12.8891 21.4129 13.1459C21.219 13.3743 20.9712 13.5506 20.6919 13.6589C20.1899 13.8689 19.5609 13.9339 18.9379 13.9389C16.2489 13.9569 13.9139 16.2689 13.7609 18.9969C13.7259 19.6329 13.6169 20.2799 13.3429 20.7889C13.1971 21.0685 12.984 21.3073 12.7229 21.4839C12.4373 21.6677 12.1023 21.7595 11.7629 21.7469C6.3809 21.6169 2.1229 17.1469 2.2529 11.7639ZM12.1999 3.75194C10.0124 3.6989 7.89341 4.51701 6.3091 6.02631C4.7248 7.5356 3.80494 9.61244 3.7519 11.7999C3.69886 13.9874 4.51697 16.1064 6.02626 17.6907C7.53555 19.275 9.61239 20.1949 11.7999 20.2479C11.8679 20.2489 11.8929 20.2339 11.9059 20.2269C11.9564 20.1871 11.9965 20.1356 12.0229 20.0769C12.1399 19.8599 12.2329 19.4759 12.2629 18.9129C12.4579 15.4379 15.4049 12.4629 18.9279 12.4379C19.4899 12.4349 19.8839 12.3699 20.1139 12.2749C20.1622 12.2567 20.2074 12.231 20.2479 12.1989C20.3008 10.0116 19.4826 7.89279 17.9733 6.30867C16.464 4.72456 14.3873 3.80488 12.1999 3.75194Z" fill="#1A202C"/>
</svg>
