<svg width="24" height="24" viewBox="0 0 24 24" fill="none" xmlns="http://www.w3.org/2000/svg">
<path d="M16 2V8H22" stroke="#1A202C" stroke-width="2" stroke-linecap="round" stroke-linejoin="round"/>
<path d="M23 1L16 8" stroke="#1A202C" stroke-width="2" stroke-linecap="round" stroke-linejoin="round"/>
<path d="M21.9999 19.9201V16.9201C22.0121 16.4297 21.8436 15.9519 21.5265 15.5776C21.2093 15.2033 20.7657 14.9586 20.2799 14.8901C19.3199 14.7635 18.3772 14.5286 17.4699 14.1901C17.112 14.0556 16.723 14.0264 16.3491 14.1062C15.9751 14.1859 15.6318 14.3712 15.3599 14.6401L14.0899 15.9101C11.5864 14.4865 9.51349 12.4136 8.08993 9.9101L9.35993 8.6401C9.6288 8.36821 9.81408 8.02494 9.89384 7.65098C9.9736 7.27701 9.94448 6.88802 9.80993 6.5301C9.47138 5.62282 9.23656 4.68016 9.10993 3.7201C9.04201 3.23954 8.80166 2.80008 8.43369 2.48363C8.06572 2.16718 7.59524 1.99532 7.10993 2.0001H4.10993C3.83227 2.00036 3.55771 2.05843 3.30372 2.17062C3.04974 2.28281 2.82189 2.44665 2.6347 2.65172C2.4475 2.85679 2.30506 3.09859 2.21643 3.36172C2.12781 3.62486 2.09494 3.90356 2.11993 4.1801C2.44818 7.27109 3.49991 10.2413 5.18993 12.8501C6.72527 15.2663 8.77376 17.3148 11.1899 18.8501C13.7869 20.5342 16.7428 21.5857 19.8199 21.9201C20.0973 21.9452 20.3769 21.912 20.6407 21.8228C20.9045 21.7336 21.1468 21.5902 21.352 21.402C21.5572 21.2137 21.7209 20.9846 21.8324 20.7294C21.944 20.4743 22.0011 20.1986 21.9999 19.9201Z" stroke="#1A202C" stroke-width="2" stroke-linecap="round" stroke-linejoin="round"/>
</svg>
