<svg width="24" height="24" viewBox="0 0 24 24" fill="none" xmlns="http://www.w3.org/2000/svg">
<path d="M10.53 15.4704C10.6704 15.611 10.7493 15.8017 10.7493 16.0004C10.7493 16.1992 10.6704 16.3898 10.53 16.5304L8.52997 18.5304C8.12533 18.9352 7.57679 19.1632 7.00441 19.1646C6.43204 19.1659 5.88246 18.9404 5.47597 18.5374C5.40404 18.4686 5.34652 18.3862 5.30676 18.295C5.26699 18.2038 5.24579 18.1055 5.24437 18.006C5.24295 17.9065 5.26135 17.8077 5.29849 17.7154C5.33564 17.6231 5.39078 17.5391 5.46072 17.4683C5.53066 17.3975 5.61399 17.3413 5.70585 17.303C5.79771 17.2647 5.89627 17.2451 5.99579 17.2453C6.09531 17.2455 6.19379 17.2655 6.2855 17.3042C6.37721 17.3428 6.46031 17.3993 6.52997 17.4704C6.78897 17.7304 7.20997 17.7304 7.46897 17.4704L9.46897 15.4704C9.60959 15.33 9.80022 15.2511 9.99897 15.2511C10.1977 15.2511 10.3893 15.33 10.53 15.4704ZM13.301 3.52541C14.252 2.57434 15.542 2.04004 16.887 2.04004C18.232 2.04004 19.5219 2.57434 20.473 3.52541C21.424 4.47648 21.9583 5.7664 21.9583 7.11141C21.9583 8.45642 21.424 9.74634 20.473 10.6974L10.695 20.4754C9.7439 21.4265 8.45398 21.9608 7.10897 21.9608C5.76396 21.9608 4.47403 21.4265 3.52297 20.4754C2.5719 19.5243 2.0376 18.2344 2.0376 16.8894C2.0376 15.5444 2.5719 14.2545 3.52297 13.3034L13.301 3.52541ZM19.412 4.58641C19.0804 4.25472 18.6868 3.99159 18.2536 3.81207C17.8203 3.63255 17.3559 3.54015 16.887 3.54015C16.418 3.54015 15.9536 3.63255 15.5204 3.81207C15.0871 3.99159 14.6935 4.25472 14.362 4.58641L10.003 8.94541L15.053 13.9954L19.413 9.63641C19.7447 9.30488 20.0078 8.91125 20.1873 8.478C20.3668 8.04475 20.4592 7.58038 20.4592 7.11141C20.4592 6.64244 20.3668 6.17807 20.1873 5.74482C20.0078 5.31157 19.7437 4.91794 19.412 4.58641ZM13.994 15.0564L8.94397 10.0064L4.58497 14.3644C4.24908 14.695 3.98197 15.0889 3.79904 15.5233C3.6161 15.9576 3.52096 16.4239 3.51911 16.8952C3.51725 17.3665 3.60871 17.8336 3.78822 18.2694C3.96773 18.7052 4.23173 19.1011 4.565 19.4344C4.89827 19.7676 5.29422 20.0316 5.73002 20.2112C6.16581 20.3907 6.63283 20.4821 7.10414 20.4803C7.57546 20.4784 8.04174 20.3833 8.47611 20.2003C8.91047 20.0174 9.30433 19.7503 9.63497 19.4144L13.994 15.0564Z" fill="#1A202C"/>
</svg>
