<svg width="24" height="24" viewBox="0 0 24 24" fill="none" xmlns="http://www.w3.org/2000/svg">
<path d="M11.3125 18H13.6875V10.8H11.3125V18ZM12.5 8.4C12.8365 8.4 13.1187 8.2848 13.3467 8.0544C13.5747 7.824 13.6883 7.5392 13.6875 7.2C13.6867 6.8608 13.5727 6.576 13.3455 6.3456C13.1183 6.1152 12.8365 6 12.5 6C12.1635 6 11.8817 6.1152 11.6545 6.3456C11.4273 6.576 11.3133 6.8608 11.3125 7.2C11.3117 7.5392 11.4257 7.8244 11.6545 8.0556C11.8833 8.2868 12.1651 8.4016 12.5 8.4ZM12.5 24C9.74896 23.3 7.47767 21.7048 5.68613 19.2144C3.89458 16.724 2.99921 13.9592 3 10.92V3.6L12.5 0L22 3.6V10.92C22 13.96 21.1046 16.7252 19.3139 19.2156C17.5231 21.706 15.2518 23.3008 12.5 24ZM12.5 21.48C14.5583 20.82 16.2604 19.5 17.6062 17.52C18.9521 15.54 19.625 13.34 19.625 10.92V5.25L12.5 2.55L5.375 5.25V10.92C5.375 13.34 6.04792 15.54 7.39375 17.52C8.73958 19.5 10.4417 20.82 12.5 21.48Z" fill="#1A202C"/>
</svg>
