<svg width="28" height="28" viewBox="0 0 28 28" fill="none" xmlns="http://www.w3.org/2000/svg">
<path d="M4.19144 10.701C4.80094 10.701 5.12894 10.361 5.12894 9.74005V6.97505C5.12894 5.75605 5.78494 5.13505 6.95694 5.13505H9.79294C10.4024 5.13505 10.7419 4.79505 10.7419 4.18555C10.7419 3.58805 10.4019 3.24805 9.79294 3.24805H6.92194C4.48444 3.24805 3.24194 4.45505 3.24194 6.86905V9.74055C3.24194 10.3615 3.58194 10.701 4.19144 10.701ZM23.8084 10.701C24.4294 10.701 24.7579 10.361 24.7579 9.74005V6.86905C24.7579 4.45505 23.5389 3.24805 21.0779 3.24805H18.2184C17.5974 3.24805 17.2579 3.58805 17.2579 4.18555C17.2579 4.79505 17.5979 5.13505 18.2184 5.13505H21.0544C22.2029 5.13505 22.8709 5.75605 22.8709 6.97505V9.74005C22.8709 10.3615 23.2109 10.701 23.8084 10.701ZM13.4959 12.986V8.89655C13.4959 8.61555 13.2734 8.38105 12.9804 8.38105H8.90244C8.60944 8.38105 8.38644 8.61505 8.38644 8.89655V12.9865C8.38644 13.2675 8.60944 13.4905 8.90244 13.4905H12.9804C13.2734 13.4905 13.4959 13.267 13.4959 12.986ZM15.5234 9.40105H18.5934V12.471H15.5234V9.40105ZM17.7034 11.581V10.303H16.4259V11.5805L17.7034 11.581ZM11.5859 11.581V10.303H10.2969V11.5805L11.5859 11.581ZM9.40594 15.53H12.4764V18.6H9.40644L9.40594 15.53ZM19.4609 15.928V14.651H18.1834V15.9285L19.4609 15.928ZM15.9334 15.928V14.651H14.6559V15.9285L15.9334 15.928ZM11.5859 17.698V16.42H10.2969V17.697L11.5859 17.698ZM17.7029 17.698V16.42H16.4139V17.697L17.7029 17.698ZM18.2184 24.7525H21.0784C23.5389 24.7525 24.7579 23.5335 24.7579 21.1195V18.26C24.7579 17.6385 24.4179 17.299 23.8084 17.299C23.1989 17.299 22.8709 17.639 22.8709 18.26V21.025C22.8709 22.244 22.2029 22.865 21.0544 22.865H18.2184C17.5974 22.865 17.2579 23.205 17.2579 23.8145C17.2579 24.412 17.5979 24.7525 18.2184 24.7525ZM6.92194 24.752H9.79294C10.4024 24.752 10.7419 24.412 10.7419 23.8145C10.7419 23.205 10.4019 22.8655 9.79294 22.8655H6.95694C5.78494 22.8655 5.12894 22.244 5.12894 21.0255V18.26C5.12894 17.6385 4.78894 17.299 4.19144 17.299C3.57044 17.299 3.24194 17.639 3.24194 18.26V21.119C3.24194 23.545 4.48444 24.752 6.92194 24.752ZM15.9334 19.467V18.1895H14.6559V19.467H15.9334ZM19.4609 19.467V18.1895H18.1834V19.467H19.4609ZM19.6134 12.9865V8.89655C19.6134 8.61555 19.3904 8.38105 19.0974 8.38105H15.0199C14.7269 8.38105 14.5044 8.61505 14.5044 8.89655V12.9865C14.5044 13.2675 14.7269 13.4905 15.0194 13.4905H19.0979C19.3909 13.4905 19.6134 13.2675 19.6134 12.9865ZM9.40594 9.40005H12.4764V12.47H9.40644L9.40594 9.40005ZM13.4959 19.103V15.013C13.4959 14.732 13.2734 14.5095 12.9804 14.5095H8.90244C8.60944 14.5095 8.38644 14.732 8.38644 15.013V19.103C8.38644 19.3845 8.60944 19.6185 8.90244 19.6185H12.9804C13.2734 19.6185 13.4959 19.3845 13.4959 19.103Z" fill="#1A202C"/>
</svg>
