<svg width="24" height="24" viewBox="0 0 24 24" fill="none" xmlns="http://www.w3.org/2000/svg">
<path d="M12 14C13.1046 14 14 13.1046 14 12C14 10.8954 13.1046 10 12 10C10.8954 10 10 10.8954 10 12C10 13.1046 10.8954 14 12 14Z" stroke="#1A202C" stroke-width="2" stroke-linecap="round" stroke-linejoin="round"/>
<path d="M16.2401 7.75969C16.7979 8.31693 17.2405 8.97866 17.5424 9.70705C17.8444 10.4354 17.9998 11.2162 17.9998 12.0047C17.9998 12.7932 17.8444 13.5739 17.5424 14.3023C17.2405 15.0307 16.7979 15.6924 16.2401 16.2497M7.76006 16.2397C7.2022 15.6824 6.75965 15.0207 6.4577 14.2923C6.15576 13.5639 6.00034 12.7832 6.00034 11.9947C6.00034 11.2062 6.15576 10.4254 6.4577 9.69705C6.75965 8.96866 7.2022 8.30693 7.76006 7.74969M19.0701 4.92969C20.9448 6.80496 21.9979 9.34805 21.9979 11.9997C21.9979 14.6513 20.9448 17.1944 19.0701 19.0697M4.93006 19.0697C3.05535 17.1944 2.0022 14.6513 2.0022 11.9997C2.0022 9.34805 3.05535 6.80496 4.93006 4.92969" stroke="#1A202C" stroke-width="2" stroke-linecap="round" stroke-linejoin="round"/>
</svg>
