<svg width="24" height="24" viewBox="0 0 24 24" fill="none" xmlns="http://www.w3.org/2000/svg">
<path d="M4.1999 4.7998C3.72251 4.7998 3.26468 4.98945 2.92711 5.32701C2.58954 5.66458 2.3999 6.12241 2.3999 6.5998V8.9998C2.3999 9.47719 2.58954 9.93503 2.92711 10.2726C3.26468 10.6102 3.72251 10.7998 4.1999 10.7998H6.5999C7.07729 10.7998 7.53513 10.6102 7.87269 10.2726C8.21026 9.93503 8.3999 9.47719 8.3999 8.9998V6.5998C8.3999 6.12241 8.21026 5.66458 7.87269 5.32701C7.53513 4.98945 7.07729 4.7998 6.5999 4.7998H4.1999ZM3.5999 6.5998C3.5999 6.44067 3.66312 6.28806 3.77564 6.17554C3.88816 6.06302 4.04077 5.9998 4.1999 5.9998H6.5999C6.75903 5.9998 6.91164 6.06302 7.02417 6.17554C7.13669 6.28806 7.1999 6.44067 7.1999 6.5998V8.9998C7.1999 9.15893 7.13669 9.31155 7.02417 9.42407C6.91164 9.53659 6.75903 9.5998 6.5999 9.5998H4.1999C4.04077 9.5998 3.88816 9.53659 3.77564 9.42407C3.66312 9.31155 3.5999 9.15893 3.5999 8.9998V6.5998ZM11.3999 5.9998C11.2408 5.9998 11.0882 6.06302 10.9756 6.17554C10.8631 6.28806 10.7999 6.44067 10.7999 6.5998C10.7999 6.75893 10.8631 6.91155 10.9756 7.02407C11.0882 7.13659 11.2408 7.1998 11.3999 7.1998H20.9999C21.159 7.1998 21.3116 7.13659 21.4242 7.02407C21.5367 6.91155 21.5999 6.75893 21.5999 6.5998C21.5999 6.44067 21.5367 6.28806 21.4242 6.17554C21.3116 6.06302 21.159 5.9998 20.9999 5.9998H11.3999ZM11.3999 8.3998C11.2408 8.3998 11.0882 8.46302 10.9756 8.57554C10.8631 8.68806 10.7999 8.84067 10.7999 8.9998C10.7999 9.15893 10.8631 9.31155 10.9756 9.42407C11.0882 9.53659 11.2408 9.5998 11.3999 9.5998H18.5999C18.759 9.5998 18.9116 9.53659 19.0242 9.42407C19.1367 9.31155 19.1999 9.15893 19.1999 8.9998C19.1999 8.84067 19.1367 8.68806 19.0242 8.57554C18.9116 8.46302 18.759 8.3998 18.5999 8.3998H11.3999ZM4.1999 13.1998C3.72251 13.1998 3.26468 13.3894 2.92711 13.727C2.58954 14.0646 2.3999 14.5224 2.3999 14.9998V17.3998C2.3999 17.8772 2.58954 18.335 2.92711 18.6726C3.26468 19.0102 3.72251 19.1998 4.1999 19.1998H6.5999C7.07729 19.1998 7.53513 19.0102 7.87269 18.6726C8.21026 18.335 8.3999 17.8772 8.3999 17.3998V14.9998C8.3999 14.5224 8.21026 14.0646 7.87269 13.727C7.53513 13.3894 7.07729 13.1998 6.5999 13.1998H4.1999ZM3.5999 14.9998C3.5999 14.8407 3.66312 14.6881 3.77564 14.5755C3.88816 14.463 4.04077 14.3998 4.1999 14.3998H6.5999C6.75903 14.3998 6.91164 14.463 7.02417 14.5755C7.13669 14.6881 7.1999 14.8407 7.1999 14.9998V17.3998C7.1999 17.5589 7.13669 17.7115 7.02417 17.8241C6.91164 17.9366 6.75903 17.9998 6.5999 17.9998H4.1999C4.04077 17.9998 3.88816 17.9366 3.77564 17.8241C3.66312 17.7115 3.5999 17.5589 3.5999 17.3998V14.9998ZM11.3999 14.3998C11.2408 14.3998 11.0882 14.463 10.9756 14.5755C10.8631 14.6881 10.7999 14.8407 10.7999 14.9998C10.7999 15.1589 10.8631 15.3115 10.9756 15.4241C11.0882 15.5366 11.2408 15.5998 11.3999 15.5998H20.9999C21.159 15.5998 21.3116 15.5366 21.4242 15.4241C21.5367 15.3115 21.5999 15.1589 21.5999 14.9998C21.5999 14.8407 21.5367 14.6881 21.4242 14.5755C21.3116 14.463 21.159 14.3998 20.9999 14.3998H11.3999ZM11.3999 16.7998C11.2408 16.7998 11.0882 16.863 10.9756 16.9755C10.8631 17.0881 10.7999 17.2407 10.7999 17.3998C10.7999 17.5589 10.8631 17.7115 10.9756 17.8241C11.0882 17.9366 11.2408 17.9998 11.3999 17.9998H18.5999C18.759 17.9998 18.9116 17.9366 19.0242 17.8241C19.1367 17.7115 19.1999 17.5589 19.1999 17.3998C19.1999 17.2407 19.1367 17.0881 19.0242 16.9755C18.9116 16.863 18.759 16.7998 18.5999 16.7998H11.3999Z" fill="#1A202C"/>
</svg>
