<svg width="24" height="24" viewBox="0 0 24 24" fill="none" xmlns="http://www.w3.org/2000/svg">
<path d="M6.04995 17.7754C5.71662 17.5921 5.45828 17.3464 5.27495 17.0384C5.09162 16.7304 4.99995 16.3844 4.99995 16.0004V11.2004L2.59995 9.87541C2.41662 9.77541 2.28328 9.65041 2.19995 9.50041C2.11662 9.35041 2.07495 9.18374 2.07495 9.00041C2.07495 8.81707 2.11662 8.65041 2.19995 8.50041C2.28328 8.35041 2.41662 8.22541 2.59995 8.12541L11.05 3.52541C11.2 3.44207 11.3543 3.37941 11.513 3.33741C11.6716 3.29541 11.834 3.27474 12 3.27541C12.166 3.27607 12.3286 3.29707 12.488 3.33841C12.6473 3.37974 12.8013 3.44207 12.95 3.52541L22.475 8.72541C22.6416 8.80874 22.771 8.92974 22.863 9.08841C22.955 9.24707 23.0006 9.41774 23 9.60041V16.0004C23 16.2837 22.9039 16.5214 22.712 16.7134C22.52 16.9054 22.2826 17.0011 22 17.0004C21.7173 16.9997 21.4799 16.9037 21.288 16.7124C21.096 16.5211 21 16.2837 21 16.0004V10.1004L19 11.2004V16.0004C19 16.3837 18.9083 16.7297 18.725 17.0384C18.5416 17.3471 18.2833 17.5927 17.95 17.7754L12.95 20.4754C12.8 20.5587 12.646 20.6214 12.488 20.6634C12.33 20.7054 12.1673 20.7261 12 20.7254C11.8326 20.7247 11.67 20.7041 11.512 20.6634C11.354 20.6227 11.2 20.5601 11.05 20.4754L6.04995 17.7754ZM12 12.7004L18.85 9.00041L12 5.30041L5.14995 9.00041L12 12.7004ZM12 18.7254L17 16.0254V12.2504L12.975 14.4754C12.825 14.5587 12.6666 14.6214 12.5 14.6634C12.3333 14.7054 12.1666 14.7261 12 14.7254C11.8333 14.7247 11.6666 14.7041 11.5 14.6634C11.3333 14.6227 11.175 14.5601 11.025 14.4754L6.99995 12.2504V16.0254L12 18.7254Z" fill="#1A202C"/>
</svg>
