<svg width="24" height="24" viewBox="0 0 24 24" fill="none" xmlns="http://www.w3.org/2000/svg">
<path d="M14.4142 6.99974C14.4142 6.73798 14.5169 6.48666 14.7001 6.29974L14.7101 6.28974L18.4701 2.52974C17.3589 2.0269 16.1209 1.87465 14.921 2.09328C13.721 2.3119 12.6163 2.89102 11.7538 3.75346C10.8914 4.61589 10.3123 5.72068 10.0936 6.92059C9.87502 8.1205 10.0273 9.35855 10.5301 10.4697L3.6201 17.3797C3.22227 17.7776 2.99878 18.3171 2.99878 18.8797C2.99878 19.4423 3.22227 19.9819 3.6201 20.3797C4.01792 20.7776 4.55749 21.0011 5.1201 21.0011C5.68271 21.0011 6.22227 20.7776 6.6201 20.3797L13.5301 13.4697C14.6413 13.9726 15.8793 14.1248 17.0792 13.9062C18.2792 13.6876 19.3839 13.1084 20.2464 12.246C21.1088 11.3836 21.6879 10.2788 21.9066 9.07888C22.1252 7.87897 21.9729 6.64092 21.4701 5.52974L17.7001 9.29974C17.5132 9.48296 17.2619 9.58559 17.0001 9.58559C16.7383 9.58559 16.487 9.48296 16.3001 9.29974L14.7001 7.69974C14.5169 7.51281 14.4142 7.26149 14.4142 6.99974Z" stroke="#1A202C" stroke-width="2" stroke-linecap="round" stroke-linejoin="round"/>
</svg>
