<svg width="24" height="24" viewBox="0 0 24 24" fill="none" xmlns="http://www.w3.org/2000/svg">
<path d="M19.86 4.53029C20.9821 4.1924 22.0424 3.67577 23 3.00029C22.6608 4.393 21.9406 5.66378 20.92 6.67029C20.9723 6.94388 20.9991 7.22174 21 7.50029C21 19.0003 10 24.0003 1 19.0003C3.48716 19.0992 5.94053 18.3983 8 17.0003C-1 13.0003 3 4.00029 3 4.00029C4.01032 5.43893 5.36074 6.60537 6.93101 7.39574C8.50127 8.1861 10.2426 8.57586 12 8.53029V7.53029C11.9877 6.61263 12.2575 5.71332 12.773 4.95401C13.2884 4.19469 14.0247 3.612 14.8821 3.28474C15.7395 2.95749 16.6767 2.90145 17.567 3.12422C18.4573 3.34698 19.2577 3.8378 19.86 4.53029Z" stroke="#1A202C" stroke-width="2" stroke-linecap="round" stroke-linejoin="round"/>
</svg>
