<svg width="24" height="24" viewBox="0 0 24 24" fill="none" xmlns="http://www.w3.org/2000/svg">
<path d="M10.9946 2.32533C11.2029 2.11702 11.4855 2 11.7801 2C12.0748 2 12.3573 2.11702 12.5657 2.32533L19.2325 8.99215C19.2612 9.02101 19.2883 9.05143 19.3137 9.08326L19.3203 9.09215L19.3381 9.1166L19.3848 9.18216L19.3948 9.19882L19.4025 9.20993L19.4181 9.23993L19.4448 9.28883L19.4525 9.30771L19.4637 9.32994L19.477 9.36549L19.4937 9.40327L19.5014 9.43105L19.5103 9.45327L19.5159 9.48216L19.5292 9.52327L19.5337 9.55439L19.5403 9.58217L19.5437 9.61105L19.5503 9.64772L19.5525 9.68106L19.5559 9.71217V9.74106L19.5581 9.77773L19.5559 9.81439V9.84328L19.5525 9.87217L19.5503 9.90773L19.5448 9.93995L19.5403 9.97329L19.5337 9.99995L19.5292 10.0333L19.5159 10.0722L19.5103 10.1022L19.5014 10.1233L19.4937 10.1522L19.477 10.1888L19.4637 10.2266L19.4525 10.2466L19.4448 10.2666L19.4181 10.3144L19.4025 10.3455L19.3948 10.3555L19.3848 10.3733L19.3381 10.4377L19.3248 10.4589L19.3203 10.4622L19.3137 10.4733C19.2627 10.5365 19.2049 10.5938 19.1414 10.6444L19.1314 10.6511L19.107 10.6689L19.0425 10.7155L19.0248 10.7255L19.0148 10.7333L18.9836 10.7489L18.9359 10.7755L18.9159 10.7833L18.8959 10.7944L18.8581 10.8077L18.8214 10.8244L18.7948 10.8311L18.7714 10.8411L18.7414 10.8466L18.7014 10.86L18.6692 10.8644L18.6425 10.8711L18.6114 10.8744L18.577 10.8811L18.5414 10.8833L18.5125 10.8866H18.4836L18.447 10.8889H5.11332C4.1244 10.8889 3.62772 9.69217 4.32774 8.99215L10.9946 2.32533ZM18.447 13.1111L18.4836 13.1134H18.5125L18.5414 13.1167L18.577 13.1189L18.6114 13.1256L18.6425 13.1289L18.6692 13.1356L18.7025 13.14L18.7414 13.1534L18.7714 13.1589L18.7925 13.1678L18.8214 13.1756L18.8581 13.1923L18.8959 13.2056L18.9159 13.2167L18.9359 13.2245L18.9836 13.2511L19.0148 13.2667L19.0248 13.2745L19.0425 13.2845L19.0992 13.3256L19.1281 13.3445L19.1314 13.3489L19.1425 13.3556C19.2057 13.4066 19.2631 13.4643 19.3137 13.5278L19.3203 13.5378L19.337 13.56L19.3848 13.6267L19.3948 13.6445L19.4025 13.6545L19.4181 13.6856L19.4448 13.7334L19.4503 13.7478L19.4637 13.7734L19.477 13.8112L19.4937 13.8478L19.5014 13.8767L19.5103 13.8989L19.5159 13.9278L19.5292 13.9678L19.5337 14L19.5403 14.0267L19.5437 14.0578L19.5503 14.0923L19.5525 14.1278L19.5559 14.1567V14.1856L19.5581 14.2223L19.5559 14.2589V14.2878L19.5525 14.3167L19.5503 14.3523L19.5437 14.3867L19.5403 14.4178L19.5337 14.4445L19.5292 14.4778L19.5159 14.5167L19.5103 14.5467L19.5014 14.5678L19.4937 14.5967L19.477 14.6334L19.4637 14.6712L19.4525 14.6912L19.4448 14.7112L19.4181 14.759L19.4025 14.7901L19.3948 14.8001L19.3848 14.8178L19.3381 14.8823L19.3248 14.9034L19.3203 14.9067L19.3137 14.9178L19.2325 15.0078L12.5657 21.6747C12.3573 21.883 12.0748 22 11.7801 22C11.4855 22 11.2029 21.883 10.9946 21.6747L4.32774 15.0078C3.62772 14.3078 4.12329 13.1111 5.11332 13.1111H18.447Z" fill="#1A202C"/>
</svg>
