<svg width="24" height="24" viewBox="0 0 24 24" fill="none" xmlns="http://www.w3.org/2000/svg">
<path d="M8.60578 9.95387C8.8308 9.96106 9.05498 9.92295 9.26498 9.8418C9.47498 9.76065 9.66654 9.63812 9.82825 9.48149C9.98997 9.32485 10.1186 9.13732 10.2064 8.93001C10.2942 8.72271 10.3394 8.49986 10.3394 8.27473C10.3394 8.04959 10.2942 7.82675 10.2064 7.61944C10.1186 7.41214 9.98997 7.2246 9.82825 7.06796C9.66654 6.91133 9.47498 6.7888 9.26498 6.70765C9.05498 6.6265 8.8308 6.58839 8.60578 6.59558C8.16022 6.59558 7.7329 6.77258 7.41784 7.08764C7.10278 7.40271 6.92578 7.83002 6.92578 8.27558C6.92578 8.72115 7.10278 9.14846 7.41784 9.46352C7.7329 9.77858 8.16022 9.95387 8.60578 9.95387ZM15.4629 16.847C15.9085 16.847 16.3358 16.67 16.6509 16.355C16.9659 16.0399 17.1429 15.6126 17.1429 15.167C17.1429 14.7214 16.9659 14.2941 16.6509 13.9791C16.3358 13.664 15.9085 13.487 15.4629 13.487C15.0174 13.487 14.59 13.664 14.275 13.9791C13.9599 14.2941 13.7829 14.7214 13.7829 15.167C13.7829 15.6126 13.9599 16.0399 14.275 16.355C14.59 16.67 15.0174 16.847 15.4629 16.847Z" stroke="#1A202C" stroke-width="1.71429" stroke-linecap="round" stroke-linejoin="round"/>
<path d="M22.7142 6.91145V8.90517C22.0993 9.17036 21.5755 9.60982 21.2075 10.1693C20.8395 10.7288 20.6434 11.3838 20.6434 12.0535C20.6434 12.7231 20.8395 13.3781 21.2075 13.9376C21.5755 14.4971 22.0993 14.9366 22.7142 15.2017V17.1972C22.7142 19.0897 21.3548 20.3566 19.2856 20.6257C13.5959 21.3629 10.4142 21.368 4.71422 20.6257C2.70336 20.3635 1.28564 19.0897 1.28564 17.1972V15.2017C1.90057 14.9366 2.42436 14.4971 2.79238 13.9376C3.16039 13.3781 3.3565 12.7231 3.3565 12.0535C3.3565 11.3838 3.16039 10.7288 2.79238 10.1693C2.42436 9.60982 1.90057 9.17036 1.28564 8.90517V6.91145C1.28564 5.01717 2.71707 3.8206 4.71422 3.48288C10.3456 2.52631 13.5719 2.67031 19.2856 3.48288C21.1748 3.75031 22.7142 5.01717 22.7142 6.91145Z" stroke="#1A202C" stroke-width="1.71429" stroke-linecap="round" stroke-linejoin="round"/>
<path d="M8.06763 15.6349C11.5391 12.7789 13.2739 11.0629 15.9328 7.77148" stroke="#1A202C" stroke-width="1.71429" stroke-linecap="round" stroke-linejoin="round"/>
</svg>
