<svg width="24" height="24" viewBox="0 0 24 24" fill="none" xmlns="http://www.w3.org/2000/svg">
<path d="M6 20C4.9 20 3.95833 19.6083 3.175 18.825C2.39167 18.0417 2 17.1 2 16V8C2 6.9 2.39167 5.95833 3.175 5.175C3.95833 4.39167 4.9 4 6 4H18C19.1 4 20.0417 4.39167 20.825 5.175C21.6083 5.95833 22 6.9 22 8V16C22 17.1 21.6083 18.0417 20.825 18.825C20.0417 19.6083 19.1 20 18 20H6ZM6 8H18C18.3667 8 18.7167 8.04167 19.05 8.125C19.3833 8.20833 19.7 8.34167 20 8.525V8C20 7.45 19.8043 6.97933 19.413 6.588C19.0217 6.19667 18.5507 6.00067 18 6H6C5.45 6 4.97933 6.196 4.588 6.588C4.19667 6.98 4.00067 7.45067 4 8V8.525C4.3 8.34167 4.61667 8.20833 4.95 8.125C5.28333 8.04167 5.63333 8 6 8ZM4.15 11.25L15.275 13.95C15.425 13.9833 15.575 13.9833 15.725 13.95C15.875 13.9167 16.0167 13.85 16.15 13.75L19.625 10.85C19.4417 10.6 19.2083 10.396 18.925 10.238C18.6417 10.08 18.3333 10.0007 18 10H6C5.56667 10 5.18767 10.1127 4.863 10.338C4.53833 10.5633 4.30067 10.8673 4.15 11.25Z" fill="#1A202C"/>
</svg>
