<svg width="24" height="24" viewBox="0 0 24 24" fill="none" xmlns="http://www.w3.org/2000/svg">
<path d="M3.33801 17C4.21584 18.5204 5.4785 19.783 6.99902 20.6607C8.51955 21.5384 10.2443 22.0003 12 22C13.7557 22.0003 15.4805 21.5384 17.001 20.6607C18.5215 19.783 19.7842 18.5204 20.662 17M3.33801 7C4.21584 5.47955 5.4785 4.21701 6.99902 3.33931C8.51955 2.46161 10.2443 1.99969 12 2C13.7557 1.99969 15.4805 2.46161 17.001 3.33931C18.5215 4.21701 19.7842 5.47955 20.662 7" stroke="#1A202C" stroke-width="1.5" stroke-linecap="round" stroke-linejoin="round"/>
<path d="M13 21.9498C13 21.9498 14.408 20.0968 15.295 16.9998M13 2.0498C13 2.0498 14.408 3.9018 15.295 6.9998M11 21.9498C11 21.9498 9.592 20.0978 8.705 16.9998M11 2.0498C11 2.0498 9.592 3.9018 8.705 6.9998M9 9.9998L10.5 14.9998L12 9.9998L13.5 14.9998L15 9.9998M1 9.9998L2.5 14.9998L4 9.9998L5.5 14.9998L7 9.9998M17 9.9998L18.5 14.9998L20 9.9998L21.5 14.9998L23 9.9998" stroke="#1A202C" stroke-width="1.5" stroke-linecap="round" stroke-linejoin="round"/>
</svg>
